<svg width="39" height="29" viewBox="0 0 39 29" fill="none" xmlns="http://www.w3.org/2000/svg">
<mask id="mask0_1647_4123" style="mask-type:luminance" maskUnits="userSpaceOnUse" x="0" y="0" width="39" height="28">
<path d="M0 0.25354H38.3984V27.3027H0V0.25354Z" fill="white"/>
</mask>
<g mask="url(#mask0_1647_4123)">
<path d="M36.3784 16.2966H35.7763V15.8304C35.7763 7.23919 28.4411 0.25354 19.429 0.25354C10.4169 0.25354 3.08816 7.23919 3.08816 15.8304V16.2966H2.47959C2.16235 16.2966 1.85159 16.3613 1.55378 16.4843C1.26244 16.6073 0.997001 16.7821 0.770404 17.0087C0.543808 17.2353 0.369004 17.4943 0.245994 17.7921C0.122986 18.0899 0.0647166 18.3942 0.0582428 18.7179V22.3499C0.0647166 22.6672 0.122986 22.9779 0.245994 23.2758C0.369004 23.5736 0.543808 23.8325 0.770404 24.0591C0.997001 24.2857 1.26244 24.4605 1.55378 24.5835C1.85159 24.7066 2.16235 24.7713 2.47959 24.7713H3.08816C3.08816 25.108 3.2047 25.3928 3.44424 25.6259C3.67731 25.8654 3.96218 25.982 4.29884 25.982H6.11161C6.44827 25.982 6.73313 25.8654 6.97268 25.6259C7.20575 25.3928 7.32228 25.108 7.32228 24.7713V16.2966C7.32228 15.9599 7.20575 15.6751 6.97268 15.442C6.73313 15.2024 6.44827 15.0859 6.11161 15.0859H4.32473C4.73261 7.51111 11.3492 1.46421 19.429 1.46421C27.5153 1.46421 34.1319 7.51111 34.5398 15.0859H32.7464C32.4162 15.0859 32.1314 15.2024 31.8918 15.442C31.6588 15.6751 31.5357 15.9599 31.5357 16.2966V24.7713C31.5357 25.108 31.6588 25.3928 31.8918 25.6259C32.1314 25.8654 32.4162 25.982 32.7464 25.982H34.5657C34.8959 25.982 35.1807 25.8654 35.4203 25.6259C35.6533 25.3928 35.7763 25.108 35.7763 24.7713H36.3784C36.7021 24.7713 37.0064 24.7066 37.3042 24.5835C37.6021 24.4605 37.861 24.2857 38.0941 24.0591C38.3207 23.8325 38.4955 23.5736 38.6185 23.2758C38.7415 22.9779 38.7998 22.6672 38.7998 22.3499V18.7179C38.7998 18.3942 38.7415 18.0899 38.6185 17.7921C38.4955 17.4943 38.3207 17.2353 38.0941 17.0087C37.861 16.7821 37.6021 16.6073 37.3042 16.4843C37.0064 16.3613 36.7021 16.2966 36.3784 16.2966ZM6.11161 16.2966V24.7713H4.29884V16.2966H6.11161ZM34.5657 24.7713H32.7464V16.2966H34.5657V24.7713Z" fill="#BB1314"/>
</g>
<mask id="mask1_1647_4123" style="mask-type:luminance" maskUnits="userSpaceOnUse" x="8" y="10" width="13" height="19">
<path d="M8.42286 10.7288H20.0246V28.7464H8.42286V10.7288Z" fill="white"/>
</mask>
<g mask="url(#mask1_1647_4123)">
<path d="M18.8269 12.5738C17.558 12.0235 16.2372 11.7516 14.8518 11.758C12.916 11.7645 11.1032 12.2436 9.41344 13.1888C9.03147 13.4219 8.83724 13.765 8.83724 14.2182V27.4968C8.83724 27.9694 9.04442 28.319 9.45876 28.5521C9.87311 28.7852 10.281 28.7722 10.6824 28.5262C11.9837 27.8205 13.3756 27.4644 14.8518 27.4515C16.2631 27.4515 17.5644 27.814 18.7751 28.5327C18.7881 28.5456 18.8075 28.5521 18.8269 28.565V12.5738Z" fill="#BB1314"/>
</g>
<mask id="mask2_1647_4123" style="mask-type:luminance" maskUnits="userSpaceOnUse" x="20" y="10" width="12" height="19">
<path d="M20.0246 10.7288H31.6264V28.7464H20.0246V10.7288Z" fill="white"/>
</mask>
<g mask="url(#mask2_1647_4123)">
<path d="M29.4316 13.1758C27.839 12.2241 26.1104 11.7515 24.2523 11.758C22.7956 11.7645 21.3907 12.0429 20.0376 12.5802V28.5197C21.3583 27.8205 22.7632 27.4644 24.2523 27.4514C25.6701 27.4514 26.9844 27.8075 28.1951 28.5326C28.6029 28.7722 29.0043 28.7786 29.4122 28.5456C29.8201 28.3125 30.0273 27.9629 30.0273 27.4968V14.2182C30.0273 13.7585 29.8266 13.4089 29.4316 13.1758Z" fill="#BB1314"/>
</g>
</svg>
