<svg width="799" height="99" viewBox="0 0 799 99" fill="none" xmlns="http://www.w3.org/2000/svg">
<g clip-path="url(#clip0_651_2526)">
<circle cx="84.061" cy="27.061" r="25.3697" stroke="#BB1314" stroke-width="3.38262"/>
<path fill-rule="evenodd" clip-rule="evenodd" d="M95.9693 26.077V19.0921C95.9693 16.1949 95.9693 14.7463 95.0193 13.9534C94.0692 13.1606 92.6166 13.3998 89.7113 13.8768L88.2936 14.1093C86.0898 14.4708 84.9879 14.6509 83.8753 14.6509C82.7626 14.6509 81.6607 14.4721 79.4569 14.1093L78.0406 13.8768C75.1353 13.3998 73.6827 13.162 72.7326 13.9534C71.7826 14.7449 71.7812 16.1949 71.7812 19.0921V26.077C71.7812 33.3402 77.4775 36.8636 81.052 38.3592C82.0209 38.7677 82.5046 38.9693 83.8753 38.9693C85.2459 38.9693 85.7297 38.7664 86.6986 38.3606C90.273 36.8636 95.9693 33.3375 95.9693 26.077ZM78.4948 29.3102C78.3977 29.3996 78.3193 29.5073 78.264 29.6272C78.2088 29.747 78.1778 29.8766 78.1728 30.0085C78.1678 30.1404 78.1889 30.272 78.2349 30.3957C78.281 30.5193 78.351 30.6327 78.441 30.7292C78.6255 30.9184 78.8761 31.0287 79.1403 31.037C79.4044 31.0453 79.6614 30.9508 79.8574 30.7736L79.8641 30.7668L79.8775 30.7574C79.9206 30.721 79.9659 30.6874 80.0133 30.6567C80.149 30.5653 80.3734 30.4309 80.6946 30.2925C81.3329 30.0157 82.3703 29.7147 83.8753 29.7147C85.3803 29.7147 86.4177 30.0157 87.056 30.2925C87.3772 30.4309 87.6016 30.5653 87.736 30.6567C87.8032 30.7032 87.8493 30.7368 87.8744 30.7574L87.8878 30.7682L87.8945 30.7736C88.2977 31.1418 88.9279 31.1229 89.3082 30.7292C89.3992 30.6356 89.4706 30.5247 89.5182 30.4031C89.5658 30.2815 89.5886 30.1516 89.5854 30.0211C89.5821 29.8905 89.5529 29.762 89.4993 29.6429C89.4457 29.5238 89.3688 29.4166 89.2733 29.3277L89.2719 29.325H89.2706L89.2665 29.3196L89.2558 29.3102L89.2289 29.2873L89.1483 29.2201C89.0606 29.1501 88.9701 29.0838 88.8768 29.0213C88.5581 28.8085 88.2202 28.6259 87.8677 28.4757C86.9767 28.09 85.6639 27.7312 83.8753 27.7312C82.0881 27.7312 80.7738 28.0914 79.8843 28.4757C79.4408 28.6679 79.1049 28.864 78.8737 29.0213C78.7516 29.1035 78.6341 29.1923 78.5217 29.2873L78.4948 29.3102ZM79.1721 21.7796C78.1736 21.7796 77.5528 22.2271 77.3862 22.5536C77.2638 22.7898 77.0536 22.9686 76.8008 23.0515C76.5481 23.1344 76.2728 23.1149 76.0343 22.9971C75.9165 22.9403 75.8113 22.8605 75.7246 22.7626C75.638 22.6646 75.5717 22.5504 75.5297 22.4266C75.4877 22.3027 75.4707 22.1718 75.4798 22.0413C75.489 21.9109 75.524 21.7835 75.5828 21.6667C76.1996 20.452 77.6899 19.7935 79.1721 19.7935C80.6556 19.7935 82.1445 20.452 82.7613 21.6654C82.8201 21.7822 82.8551 21.9095 82.8643 22.04C82.8734 22.1704 82.8564 22.3014 82.8144 22.4252C82.7724 22.5491 82.7061 22.6633 82.6195 22.7612C82.5328 22.8592 82.4276 22.9389 82.3098 22.9957C82.0713 23.1136 81.796 23.1331 81.5433 23.0502C81.2905 22.9673 81.0803 22.7885 80.9579 22.5523C80.7927 22.2258 80.1705 21.7783 79.1721 21.7783M88.5785 21.7783C87.5801 21.7783 86.9579 22.2258 86.7926 22.5523C86.6702 22.7885 86.4601 22.9673 86.2073 23.0502C85.9545 23.1331 85.6793 23.1136 85.4408 22.9957C85.323 22.9389 85.2177 22.8592 85.1311 22.7612C85.0445 22.6633 84.9782 22.5491 84.9362 22.4252C84.8941 22.3014 84.8772 22.1704 84.8863 22.04C84.8954 21.9095 84.9304 21.7822 84.9893 21.6654C85.6061 20.4506 87.0963 19.7935 88.5785 19.7935C90.0621 19.7935 91.551 20.452 92.1678 21.6654C92.2266 21.7822 92.2616 21.9095 92.2707 22.04C92.2799 22.1704 92.2629 22.3014 92.2209 22.4252C92.1789 22.5491 92.1126 22.6633 92.0259 22.7612C91.9393 22.8592 91.834 22.9389 91.7163 22.9957C91.4777 23.1136 91.2025 23.1331 90.9497 23.0502C90.697 22.9673 90.4868 22.7885 90.3644 22.5523C90.1991 22.2258 89.577 21.7783 88.5785 21.7783Z" fill="#BB1314"/>
</g>
<path d="M9.02056 79.0154C8.95389 79.1287 8.88389 79.2121 8.81056 79.2654C8.73722 79.3187 8.64389 79.3454 8.53056 79.3454C8.41056 79.3454 8.27389 79.2921 8.12056 79.1854C7.96722 79.0721 7.77389 78.9487 7.54056 78.8154C7.31389 78.6754 7.04056 78.5521 6.72056 78.4454C6.40056 78.3321 6.01722 78.2754 5.57056 78.2754C5.15056 78.2754 4.78056 78.3321 4.46056 78.4454C4.14722 78.5521 3.88389 78.7021 3.67056 78.8954C3.45722 79.0821 3.29389 79.3054 3.18056 79.5654C3.07389 79.8187 3.02056 80.0954 3.02056 80.3954C3.02056 80.7821 3.11722 81.1021 3.31056 81.3554C3.51056 81.6087 3.77056 81.8254 4.09056 82.0054C4.41056 82.1854 4.77389 82.3421 5.18056 82.4754C5.58722 82.6087 6.00389 82.7487 6.43056 82.8954C6.85722 83.0354 7.27389 83.1987 7.68056 83.3854C8.08722 83.5721 8.45056 83.8087 8.77056 84.0954C9.09056 84.3754 9.34722 84.7221 9.54056 85.1354C9.74056 85.5421 9.84056 86.0421 9.84056 86.6354C9.84056 87.2687 9.73056 87.8621 9.51056 88.4154C9.29722 88.9687 8.98389 89.4521 8.57056 89.8654C8.15722 90.2787 7.64722 90.6054 7.04056 90.8454C6.44056 91.0787 5.75722 91.1954 4.99056 91.1954C4.53056 91.1954 4.08389 91.1487 3.65056 91.0554C3.21722 90.9687 2.80722 90.8454 2.42056 90.6854C2.03389 90.5187 1.67056 90.3221 1.33056 90.0954C0.997223 89.8621 0.697223 89.6021 0.430557 89.3154L1.04056 88.2954C1.10056 88.2154 1.17056 88.1487 1.25056 88.0954C1.33722 88.0421 1.43389 88.0154 1.54056 88.0154C1.68056 88.0154 1.84056 88.0887 2.02056 88.2354C2.20722 88.3821 2.43389 88.5454 2.70056 88.7254C2.97389 88.8987 3.29722 89.0587 3.67056 89.2054C4.05056 89.3521 4.51056 89.4254 5.05056 89.4254C5.49056 89.4254 5.88389 89.3687 6.23056 89.2554C6.57722 89.1354 6.86722 88.9687 7.10056 88.7554C7.34056 88.5354 7.52389 88.2721 7.65056 87.9654C7.77722 87.6587 7.84056 87.3187 7.84056 86.9454C7.84056 86.5254 7.74389 86.1821 7.55056 85.9154C7.35722 85.6487 7.10056 85.4254 6.78056 85.2454C6.46056 85.0654 6.09722 84.9121 5.69056 84.7854C5.28389 84.6587 4.86722 84.5287 4.44056 84.3954C4.01389 84.2554 3.59722 84.0954 3.19056 83.9154C2.78389 83.7354 2.42056 83.5021 2.10056 83.2154C1.78056 82.9221 1.52389 82.5587 1.33056 82.1254C1.13722 81.6854 1.04056 81.1454 1.04056 80.5054C1.04056 79.9921 1.14056 79.4954 1.34056 79.0154C1.54056 78.5354 1.83056 78.1121 2.21056 77.7454C2.59722 77.3721 3.07056 77.0754 3.63056 76.8554C4.19056 76.6287 4.83056 76.5154 5.55056 76.5154C6.35722 76.5154 7.09722 76.6454 7.77056 76.9054C8.45056 77.1587 9.04056 77.5254 9.54056 78.0054L9.02056 79.0154ZM18.7409 84.8254C18.7409 84.4387 18.6842 84.0821 18.5709 83.7554C18.4642 83.4287 18.3042 83.1454 18.0909 82.9054C17.8775 82.6654 17.6175 82.4787 17.3109 82.3454C17.0042 82.2121 16.6509 82.1454 16.2509 82.1454C15.4309 82.1454 14.7842 82.3821 14.3109 82.8554C13.8442 83.3287 13.5475 83.9854 13.4209 84.8254H18.7409ZM20.3509 89.5854C20.1109 89.8654 19.8342 90.1087 19.5209 90.3154C19.2075 90.5154 18.8742 90.6787 18.5209 90.8054C18.1675 90.9321 17.8009 91.0254 17.4209 91.0854C17.0475 91.1454 16.6775 91.1754 16.3109 91.1754C15.6109 91.1754 14.9609 91.0587 14.3609 90.8254C13.7675 90.5854 13.2509 90.2387 12.8109 89.7854C12.3775 89.3254 12.0375 88.7587 11.7909 88.0854C11.5509 87.4054 11.4309 86.6254 11.4309 85.7454C11.4309 85.0387 11.5409 84.3821 11.7609 83.7754C11.9809 83.1621 12.2942 82.6287 12.7009 82.1754C13.1142 81.7221 13.6175 81.3654 14.2109 81.1054C14.8042 80.8454 15.4709 80.7154 16.2109 80.7154C16.8309 80.7154 17.4009 80.8187 17.9209 81.0254C18.4475 81.2254 18.9009 81.5187 19.2809 81.9054C19.6609 82.2921 19.9575 82.7687 20.1709 83.3354C20.3909 83.9021 20.5009 84.5487 20.5009 85.2754C20.5009 85.5754 20.4675 85.7787 20.4009 85.8854C20.3342 85.9854 20.2109 86.0354 20.0309 86.0354H13.3709C13.3909 86.6421 13.4775 87.1721 13.6309 87.6254C13.7842 88.0721 13.9942 88.4454 14.2609 88.7454C14.5342 89.0454 14.8575 89.2687 15.2309 89.4154C15.6042 89.5621 16.0209 89.6354 16.4809 89.6354C16.9142 89.6354 17.2875 89.5854 17.6009 89.4854C17.9209 89.3854 18.1942 89.2787 18.4209 89.1654C18.6542 89.0454 18.8475 88.9354 19.0009 88.8354C19.1609 88.7354 19.3009 88.6854 19.4209 88.6854C19.5809 88.6854 19.7042 88.7454 19.7909 88.8654L20.3509 89.5854ZM24.5968 76.2754V91.0354H22.6368V76.2754H24.5968ZM34.112 84.8254C34.112 84.4387 34.0553 84.0821 33.942 83.7554C33.8353 83.4287 33.6753 83.1454 33.462 82.9054C33.2486 82.6654 32.9886 82.4787 32.682 82.3454C32.3753 82.2121 32.022 82.1454 31.622 82.1454C30.802 82.1454 30.1553 82.3821 29.682 82.8554C29.2153 83.3287 28.9186 83.9854 28.792 84.8254H34.112ZM35.722 89.5854C35.482 89.8654 35.2053 90.1087 34.892 90.3154C34.5786 90.5154 34.2453 90.6787 33.892 90.8054C33.5386 90.9321 33.172 91.0254 32.792 91.0854C32.4186 91.1454 32.0486 91.1754 31.682 91.1754C30.982 91.1754 30.332 91.0587 29.732 90.8254C29.1386 90.5854 28.622 90.2387 28.182 89.7854C27.7486 89.3254 27.4086 88.7587 27.162 88.0854C26.922 87.4054 26.802 86.6254 26.802 85.7454C26.802 85.0387 26.912 84.3821 27.132 83.7754C27.352 83.1621 27.6653 82.6287 28.072 82.1754C28.4853 81.7221 28.9886 81.3654 29.582 81.1054C30.1753 80.8454 30.842 80.7154 31.582 80.7154C32.202 80.7154 32.772 80.8187 33.292 81.0254C33.8186 81.2254 34.272 81.5187 34.652 81.9054C35.032 82.2921 35.3286 82.7687 35.542 83.3354C35.762 83.9021 35.872 84.5487 35.872 85.2754C35.872 85.5754 35.8386 85.7787 35.772 85.8854C35.7053 85.9854 35.582 86.0354 35.402 86.0354H28.742C28.762 86.6421 28.8486 87.1721 29.002 87.6254C29.1553 88.0721 29.3653 88.4454 29.632 88.7454C29.9053 89.0454 30.2286 89.2687 30.602 89.4154C30.9753 89.5621 31.392 89.6354 31.852 89.6354C32.2853 89.6354 32.6586 89.5854 32.972 89.4854C33.292 89.3854 33.5653 89.2787 33.792 89.1654C34.0253 89.0454 34.2186 88.9354 34.372 88.8354C34.532 88.7354 34.672 88.6854 34.792 88.6854C34.952 88.6854 35.0753 88.7454 35.162 88.8654L35.722 89.5854ZM45.0879 82.7754C45.0279 82.8487 44.9679 82.9087 44.9079 82.9554C44.8546 82.9954 44.7746 83.0154 44.6679 83.0154C44.5612 83.0154 44.4479 82.9754 44.3279 82.8954C44.2146 82.8087 44.0679 82.7187 43.8879 82.6254C43.7146 82.5254 43.5012 82.4354 43.2479 82.3554C43.0012 82.2687 42.6946 82.2254 42.3279 82.2254C41.8479 82.2254 41.4246 82.3121 41.0579 82.4854C40.6912 82.6587 40.3846 82.9054 40.1379 83.2254C39.8979 83.5454 39.7146 83.9354 39.5879 84.3954C39.4612 84.8554 39.3979 85.3721 39.3979 85.9454C39.3979 86.5387 39.4646 87.0687 39.5979 87.5354C39.7312 87.9954 39.9212 88.3854 40.1679 88.7054C40.4146 89.0187 40.7146 89.2587 41.0679 89.4254C41.4212 89.5854 41.8146 89.6654 42.2479 89.6654C42.6679 89.6654 43.0146 89.6154 43.2879 89.5154C43.5612 89.4087 43.7879 89.2954 43.9679 89.1754C44.1479 89.0554 44.2979 88.9454 44.4179 88.8454C44.5379 88.7387 44.6612 88.6854 44.7879 88.6854C44.9479 88.6854 45.0712 88.7454 45.1579 88.8654L45.7179 89.5854C45.4846 89.8721 45.2212 90.1154 44.9279 90.3154C44.6412 90.5154 44.3346 90.6787 44.0079 90.8054C43.6812 90.9321 43.3379 91.0254 42.9779 91.0854C42.6246 91.1454 42.2646 91.1754 41.8979 91.1754C41.2646 91.1754 40.6712 91.0587 40.1179 90.8254C39.5712 90.5921 39.0946 90.2521 38.6879 89.8054C38.2879 89.3587 37.9712 88.8121 37.7379 88.1654C37.5046 87.5121 37.3879 86.7721 37.3879 85.9454C37.3879 85.1921 37.4912 84.4954 37.6979 83.8554C37.9112 83.2154 38.2212 82.6654 38.6279 82.2054C39.0412 81.7387 39.5479 81.3754 40.1479 81.1154C40.7479 80.8487 41.4346 80.7154 42.2079 80.7154C42.9346 80.7154 43.5746 80.8321 44.1279 81.0654C44.6812 81.2987 45.1746 81.6287 45.6079 82.0554L45.0879 82.7754ZM50.7182 91.1954C49.8982 91.1954 49.2649 90.9654 48.8182 90.5054C48.3782 90.0454 48.1582 89.3887 48.1582 88.5354V82.4554H46.9782C46.8649 82.4554 46.7682 82.4221 46.6882 82.3554C46.6149 82.2821 46.5782 82.1754 46.5782 82.0354V81.2454L48.2282 81.0154L48.6682 77.9854C48.6949 77.8721 48.7449 77.7854 48.8182 77.7254C48.8982 77.6587 48.9982 77.6254 49.1182 77.6254H50.1082V81.0354H52.9882V82.4554H50.1082V88.4054C50.1082 88.8054 50.2049 89.1054 50.3982 89.3054C50.5982 89.4987 50.8515 89.5954 51.1582 89.5954C51.3382 89.5954 51.4915 89.5721 51.6182 89.5254C51.7515 89.4787 51.8649 89.4287 51.9582 89.3754C52.0515 89.3154 52.1315 89.2621 52.1982 89.2154C52.2649 89.1687 52.3249 89.1454 52.3782 89.1454C52.4449 89.1454 52.4949 89.1621 52.5282 89.1954C52.5682 89.2221 52.6082 89.2687 52.6482 89.3354L53.2282 90.2754C52.9082 90.5687 52.5282 90.7954 52.0882 90.9554C51.6482 91.1154 51.1915 91.1954 50.7182 91.1954ZM65.0517 85.3554V91.0354H62.9317V85.3554L57.6717 76.6754H59.5417C59.7283 76.6754 59.8783 76.7221 59.9917 76.8154C60.105 76.9021 60.1983 77.0187 60.2717 77.1654L63.3917 82.5354C63.5183 82.7821 63.6317 83.0154 63.7317 83.2354C63.8383 83.4554 63.9317 83.6721 64.0117 83.8854C64.085 83.6721 64.1683 83.4554 64.2617 83.2354C64.3617 83.0154 64.475 82.7821 64.6017 82.5354L67.7117 77.1654C67.7783 77.0454 67.8683 76.9354 67.9817 76.8354C68.1017 76.7287 68.2517 76.6754 68.4317 76.6754H70.3117L65.0517 85.3554ZM73.7823 80.7154C74.5289 80.7154 75.2023 80.8387 75.8023 81.0854C76.4089 81.3254 76.9223 81.6754 77.3423 82.1354C77.7689 82.5887 78.0956 83.1387 78.3223 83.7854C78.5489 84.4254 78.6623 85.1454 78.6623 85.9454C78.6623 86.7454 78.5489 87.4687 78.3223 88.1154C78.0956 88.7621 77.7689 89.3121 77.3423 89.7654C76.9223 90.2187 76.4089 90.5687 75.8023 90.8154C75.2023 91.0554 74.5289 91.1754 73.7823 91.1754C73.0289 91.1754 72.3489 91.0554 71.7423 90.8154C71.1423 90.5687 70.6289 90.2187 70.2023 89.7654C69.7756 89.3121 69.4456 88.7621 69.2123 88.1154C68.9856 87.4687 68.8723 86.7454 68.8723 85.9454C68.8723 85.1454 68.9856 84.4254 69.2123 83.7854C69.4456 83.1387 69.7756 82.5887 70.2023 82.1354C70.6289 81.6754 71.1423 81.3254 71.7423 81.0854C72.3489 80.8387 73.0289 80.7154 73.7823 80.7154ZM73.7823 89.6554C74.7423 89.6554 75.4589 89.3321 75.9323 88.6854C76.4056 88.0387 76.6423 87.1287 76.6423 85.9554C76.6423 84.7821 76.4056 83.8721 75.9323 83.2254C75.4589 82.5721 74.7423 82.2454 73.7823 82.2454C72.8089 82.2454 72.0823 82.5721 71.6023 83.2254C71.1289 83.8721 70.8923 84.7821 70.8923 85.9554C70.8923 87.1287 71.1289 88.0387 71.6023 88.6854C72.0823 89.3321 72.8089 89.6554 73.7823 89.6554ZM89.289 80.8754V91.0354H88.119C87.8523 91.0354 87.679 90.9054 87.599 90.6454L87.459 89.6254C87.239 89.8587 87.009 90.0721 86.769 90.2654C86.529 90.4587 86.2723 90.6254 85.999 90.7654C85.7257 90.8987 85.4357 91.0021 85.129 91.0754C84.8223 91.1554 84.4923 91.1954 84.139 91.1954C83.579 91.1954 83.0857 91.1021 82.659 90.9154C82.239 90.7287 81.8857 90.4687 81.599 90.1354C81.3123 89.7954 81.0957 89.3887 80.949 88.9154C80.8023 88.4421 80.729 87.9187 80.729 87.3454V80.8754H82.689V87.3454C82.689 88.0721 82.8557 88.6387 83.189 89.0454C83.5223 89.4454 84.0323 89.6454 84.719 89.6454C85.219 89.6454 85.6857 89.5287 86.119 89.2954C86.5523 89.0554 86.959 88.7287 87.339 88.3154V80.8754H89.289ZM93.8509 82.8254C94.1775 82.1587 94.5709 81.6354 95.0309 81.2554C95.4909 80.8754 96.0442 80.6854 96.6909 80.6854C96.9109 80.6854 97.1175 80.7121 97.3109 80.7654C97.5109 80.8121 97.6842 80.8854 97.8309 80.9854L97.7009 82.4554C97.6542 82.6354 97.5442 82.7254 97.3709 82.7254C97.2775 82.7254 97.1375 82.7087 96.9509 82.6754C96.7642 82.6354 96.5642 82.6154 96.3509 82.6154C96.0375 82.6154 95.7609 82.6621 95.5209 82.7554C95.2809 82.8421 95.0642 82.9754 94.8709 83.1554C94.6842 83.3287 94.5175 83.5454 94.3709 83.8054C94.2242 84.0587 94.0875 84.3487 93.9609 84.6754V91.0354H92.0109V80.8754H93.1309C93.3442 80.8754 93.4875 80.9154 93.5609 80.9954C93.6409 81.0687 93.6975 81.2021 93.7309 81.3954L93.8509 82.8254ZM116.084 84.0454V89.6454C115.357 90.1654 114.584 90.5554 113.764 90.8154C112.944 91.0687 112.051 91.1954 111.084 91.1954C109.924 91.1954 108.874 91.0154 107.934 90.6554C107.001 90.2954 106.204 89.7921 105.544 89.1454C104.884 88.4987 104.374 87.7254 104.014 86.8254C103.661 85.9254 103.484 84.9354 103.484 83.8554C103.484 82.7687 103.654 81.7754 103.994 80.8754C104.341 79.9687 104.834 79.1954 105.474 78.5554C106.114 77.9087 106.887 77.4087 107.794 77.0554C108.707 76.6954 109.731 76.5154 110.864 76.5154C111.437 76.5154 111.967 76.5587 112.454 76.6454C112.947 76.7321 113.404 76.8554 113.824 77.0154C114.244 77.1754 114.631 77.3687 114.984 77.5954C115.344 77.8154 115.677 78.0654 115.984 78.3454L115.374 79.3054C115.281 79.4587 115.157 79.5554 115.004 79.5954C114.851 79.6354 114.684 79.5987 114.504 79.4854C114.331 79.3854 114.137 79.2687 113.924 79.1354C113.717 79.0021 113.467 78.8787 113.174 78.7654C112.887 78.6521 112.551 78.5554 112.164 78.4754C111.777 78.3954 111.321 78.3554 110.794 78.3554C110.007 78.3554 109.297 78.4854 108.664 78.7454C108.031 78.9987 107.491 79.3654 107.044 79.8454C106.597 80.3254 106.254 80.9054 106.014 81.5854C105.774 82.2587 105.654 83.0154 105.654 83.8554C105.654 84.7354 105.781 85.5254 106.034 86.2254C106.287 86.9187 106.644 87.5087 107.104 87.9954C107.571 88.4754 108.134 88.8421 108.794 89.0954C109.461 89.3487 110.204 89.4754 111.024 89.4754C111.344 89.4754 111.641 89.4587 111.914 89.4254C112.194 89.3854 112.461 89.3321 112.714 89.2654C112.967 89.1987 113.211 89.1154 113.444 89.0154C113.684 88.9154 113.921 88.8054 114.154 88.6854V85.6754H112.034C111.901 85.6754 111.791 85.6354 111.704 85.5554C111.624 85.4754 111.584 85.3754 111.584 85.2554V84.0454H116.084ZM125.167 84.8254C125.167 84.4387 125.11 84.0821 124.997 83.7554C124.89 83.4287 124.73 83.1454 124.517 82.9054C124.303 82.6654 124.043 82.4787 123.737 82.3454C123.43 82.2121 123.077 82.1454 122.677 82.1454C121.857 82.1454 121.21 82.3821 120.737 82.8554C120.27 83.3287 119.973 83.9854 119.847 84.8254H125.167ZM126.777 89.5854C126.537 89.8654 126.26 90.1087 125.947 90.3154C125.633 90.5154 125.3 90.6787 124.947 90.8054C124.593 90.9321 124.227 91.0254 123.847 91.0854C123.473 91.1454 123.103 91.1754 122.737 91.1754C122.037 91.1754 121.387 91.0587 120.787 90.8254C120.193 90.5854 119.677 90.2387 119.237 89.7854C118.803 89.3254 118.463 88.7587 118.217 88.0854C117.977 87.4054 117.857 86.6254 117.857 85.7454C117.857 85.0387 117.967 84.3821 118.187 83.7754C118.407 83.1621 118.72 82.6287 119.127 82.1754C119.54 81.7221 120.043 81.3654 120.637 81.1054C121.23 80.8454 121.897 80.7154 122.637 80.7154C123.257 80.7154 123.827 80.8187 124.347 81.0254C124.873 81.2254 125.327 81.5187 125.707 81.9054C126.087 82.2921 126.383 82.7687 126.597 83.3354C126.817 83.9021 126.927 84.5487 126.927 85.2754C126.927 85.5754 126.893 85.7787 126.827 85.8854C126.76 85.9854 126.637 86.0354 126.457 86.0354H119.797C119.817 86.6421 119.903 87.1721 120.057 87.6254C120.21 88.0721 120.42 88.4454 120.687 88.7454C120.96 89.0454 121.283 89.2687 121.657 89.4154C122.03 89.5621 122.447 89.6354 122.907 89.6354C123.34 89.6354 123.713 89.5854 124.027 89.4854C124.347 89.3854 124.62 89.2787 124.847 89.1654C125.08 89.0454 125.273 88.9354 125.427 88.8354C125.587 88.7354 125.727 88.6854 125.847 88.6854C126.007 88.6854 126.13 88.7454 126.217 88.8654L126.777 89.5854ZM130.853 82.2854C131.073 82.0521 131.303 81.8387 131.543 81.6454C131.783 81.4521 132.036 81.2887 132.303 81.1554C132.576 81.0154 132.866 80.9087 133.173 80.8354C133.486 80.7554 133.819 80.7154 134.173 80.7154C134.733 80.7154 135.223 80.8087 135.643 80.9954C136.069 81.1821 136.426 81.4454 136.713 81.7854C136.999 82.1187 137.216 82.5221 137.363 82.9954C137.509 83.4687 137.583 83.9921 137.583 84.5654V91.0354H135.623V84.5654C135.623 83.8387 135.456 83.2754 135.123 82.8754C134.789 82.4687 134.279 82.2654 133.593 82.2654C133.093 82.2654 132.623 82.3854 132.183 82.6254C131.749 82.8587 131.346 83.1787 130.973 83.5854V91.0354H129.023V80.8754H130.193C130.466 80.8754 130.636 81.0054 130.703 81.2654L130.853 82.2854ZM142.054 82.8254C142.381 82.1587 142.774 81.6354 143.234 81.2554C143.694 80.8754 144.247 80.6854 144.894 80.6854C145.114 80.6854 145.321 80.7121 145.514 80.7654C145.714 80.8121 145.887 80.8854 146.034 80.9854L145.904 82.4554C145.857 82.6354 145.747 82.7254 145.574 82.7254C145.481 82.7254 145.341 82.7087 145.154 82.6754C144.967 82.6354 144.767 82.6154 144.554 82.6154C144.241 82.6154 143.964 82.6621 143.724 82.7554C143.484 82.8421 143.267 82.9754 143.074 83.1554C142.887 83.3287 142.721 83.5454 142.574 83.8054C142.427 84.0587 142.291 84.3487 142.164 84.6754V91.0354H140.214V80.8754H141.334C141.547 80.8754 141.691 80.9154 141.764 80.9954C141.844 81.0687 141.901 81.2021 141.934 81.3954L142.054 82.8254ZM153.897 84.8254C153.897 84.4387 153.84 84.0821 153.727 83.7554C153.62 83.4287 153.46 83.1454 153.247 82.9054C153.034 82.6654 152.774 82.4787 152.467 82.3454C152.16 82.2121 151.807 82.1454 151.407 82.1454C150.587 82.1454 149.94 82.3821 149.467 82.8554C149 83.3287 148.704 83.9854 148.577 84.8254H153.897ZM155.507 89.5854C155.267 89.8654 154.99 90.1087 154.677 90.3154C154.364 90.5154 154.03 90.6787 153.677 90.8054C153.324 90.9321 152.957 91.0254 152.577 91.0854C152.204 91.1454 151.834 91.1754 151.467 91.1754C150.767 91.1754 150.117 91.0587 149.517 90.8254C148.924 90.5854 148.407 90.2387 147.967 89.7854C147.534 89.3254 147.194 88.7587 146.947 88.0854C146.707 87.4054 146.587 86.6254 146.587 85.7454C146.587 85.0387 146.697 84.3821 146.917 83.7754C147.137 83.1621 147.45 82.6287 147.857 82.1754C148.27 81.7221 148.774 81.3654 149.367 81.1054C149.96 80.8454 150.627 80.7154 151.367 80.7154C151.987 80.7154 152.557 80.8187 153.077 81.0254C153.604 81.2254 154.057 81.5187 154.437 81.9054C154.817 82.2921 155.114 82.7687 155.327 83.3354C155.547 83.9021 155.657 84.5487 155.657 85.2754C155.657 85.5754 155.624 85.7787 155.557 85.8854C155.49 85.9854 155.367 86.0354 155.187 86.0354H148.527C148.547 86.6421 148.634 87.1721 148.787 87.6254C148.94 88.0721 149.15 88.4454 149.417 88.7454C149.69 89.0454 150.014 89.2687 150.387 89.4154C150.76 89.5621 151.177 89.6354 151.637 89.6354C152.07 89.6354 152.444 89.5854 152.757 89.4854C153.077 89.3854 153.35 89.2787 153.577 89.1654C153.81 89.0454 154.004 88.9354 154.157 88.8354C154.317 88.7354 154.457 88.6854 154.577 88.6854C154.737 88.6854 154.86 88.7454 154.947 88.8654L155.507 89.5854ZM163.743 82.6254C163.69 82.7121 163.633 82.7754 163.573 82.8154C163.513 82.8487 163.436 82.8654 163.343 82.8654C163.236 82.8654 163.116 82.8287 162.983 82.7554C162.856 82.6821 162.7 82.6021 162.513 82.5154C162.333 82.4287 162.12 82.3487 161.873 82.2754C161.626 82.2021 161.333 82.1654 160.993 82.1654C160.713 82.1654 160.456 82.2021 160.223 82.2754C159.996 82.3421 159.803 82.4387 159.643 82.5654C159.483 82.6854 159.36 82.8321 159.273 83.0054C159.186 83.1721 159.143 83.3521 159.143 83.5454C159.143 83.7987 159.216 84.0087 159.363 84.1754C159.516 84.3421 159.713 84.4854 159.953 84.6054C160.2 84.7254 160.476 84.8354 160.783 84.9354C161.096 85.0287 161.413 85.1287 161.733 85.2354C162.06 85.3421 162.376 85.4654 162.683 85.6054C162.996 85.7387 163.273 85.9087 163.513 86.1154C163.76 86.3154 163.956 86.5587 164.103 86.8454C164.256 87.1321 164.333 87.4821 164.333 87.8954C164.333 88.3687 164.246 88.8087 164.073 89.2154C163.906 89.6154 163.656 89.9621 163.323 90.2554C162.996 90.5487 162.59 90.7787 162.103 90.9454C161.616 91.1121 161.06 91.1954 160.433 91.1954C159.733 91.1954 159.086 91.0787 158.493 90.8454C157.9 90.6121 157.403 90.3154 157.003 89.9554L157.463 89.2054C157.516 89.1121 157.583 89.0421 157.663 88.9954C157.743 88.9421 157.85 88.9154 157.983 88.9154C158.11 88.9154 158.24 88.9621 158.373 89.0554C158.506 89.1487 158.666 89.2521 158.853 89.3654C159.04 89.4721 159.266 89.5721 159.533 89.6654C159.8 89.7521 160.133 89.7954 160.533 89.7954C160.866 89.7954 161.156 89.7554 161.403 89.6754C161.65 89.5887 161.853 89.4754 162.013 89.3354C162.18 89.1887 162.303 89.0221 162.383 88.8354C162.463 88.6487 162.503 88.4521 162.503 88.2454C162.503 87.9787 162.426 87.7587 162.273 87.5854C162.126 87.4054 161.93 87.2521 161.683 87.1254C161.443 86.9987 161.166 86.8887 160.853 86.7954C160.54 86.7021 160.22 86.6021 159.893 86.4954C159.566 86.3887 159.246 86.2654 158.933 86.1254C158.62 85.9854 158.34 85.8087 158.093 85.5954C157.853 85.3821 157.656 85.1221 157.503 84.8154C157.356 84.5087 157.283 84.1354 157.283 83.6954C157.283 83.3021 157.363 82.9254 157.523 82.5654C157.69 82.2054 157.926 81.8887 158.233 81.6154C158.546 81.3421 158.93 81.1254 159.383 80.9654C159.843 80.7987 160.366 80.7154 160.953 80.7154C161.626 80.7154 162.233 80.8221 162.773 81.0354C163.32 81.2487 163.786 81.5421 164.173 81.9154L163.743 82.6254Z" fill="#BB1314"/>
<rect x="124.652" y="25.1848" width="135.305" height="3.38262" fill="#BB1314"/>
<g clip-path="url(#clip1_651_2526)">
<circle cx="300.548" cy="27.061" r="25.3697" stroke="#BB1314" stroke-width="3.38262"/>
<path d="M294.833 24.4969L300.362 15.4036L305.893 24.4996L294.833 24.4969ZM307.741 39.2785C306.345 39.2785 305.163 38.7943 304.194 37.8259C303.224 36.8575 302.74 35.675 302.74 34.2783C302.74 32.8817 303.224 31.6951 304.194 30.7186C305.163 29.7422 306.345 29.2539 307.741 29.2539C309.137 29.2539 310.323 29.7422 311.301 30.7186C312.278 31.6951 312.766 32.8817 312.766 34.2783C312.765 35.675 312.276 36.8575 311.301 37.8259C310.325 38.7943 309.139 39.279 307.741 39.2799M289.302 38.608V29.9245H297.985V38.608H289.302Z" fill="#BB1314"/>
</g>
<path d="M224.874 78.4054V83.2154H230.634V84.9454H224.874V91.0354H222.734V76.6754H231.634V78.4054H224.874ZM237.094 80.7154C237.84 80.7154 238.514 80.8387 239.114 81.0854C239.72 81.3254 240.234 81.6754 240.654 82.1354C241.08 82.5887 241.407 83.1387 241.634 83.7854C241.86 84.4254 241.974 85.1454 241.974 85.9454C241.974 86.7454 241.86 87.4687 241.634 88.1154C241.407 88.7621 241.08 89.3121 240.654 89.7654C240.234 90.2187 239.72 90.5687 239.114 90.8154C238.514 91.0554 237.84 91.1754 237.094 91.1754C236.34 91.1754 235.66 91.0554 235.054 90.8154C234.454 90.5687 233.94 90.2187 233.514 89.7654C233.087 89.3121 232.757 88.7621 232.524 88.1154C232.297 87.4687 232.184 86.7454 232.184 85.9454C232.184 85.1454 232.297 84.4254 232.524 83.7854C232.757 83.1387 233.087 82.5887 233.514 82.1354C233.94 81.6754 234.454 81.3254 235.054 81.0854C235.66 80.8387 236.34 80.7154 237.094 80.7154ZM237.094 89.6554C238.054 89.6554 238.77 89.3321 239.244 88.6854C239.717 88.0387 239.954 87.1287 239.954 85.9554C239.954 84.7821 239.717 83.8721 239.244 83.2254C238.77 82.5721 238.054 82.2454 237.094 82.2454C236.12 82.2454 235.394 82.5721 234.914 83.2254C234.44 83.8721 234.204 84.7821 234.204 85.9554C234.204 87.1287 234.44 88.0387 234.914 88.6854C235.394 89.3321 236.12 89.6554 237.094 89.6554ZM246.151 76.2754V91.0354H244.191V76.2754H246.151ZM250.936 76.2754V91.0354H248.976V76.2754H250.936ZM258.051 80.7154C258.797 80.7154 259.471 80.8387 260.071 81.0854C260.677 81.3254 261.191 81.6754 261.611 82.1354C262.037 82.5887 262.364 83.1387 262.591 83.7854C262.817 84.4254 262.931 85.1454 262.931 85.9454C262.931 86.7454 262.817 87.4687 262.591 88.1154C262.364 88.7621 262.037 89.3121 261.611 89.7654C261.191 90.2187 260.677 90.5687 260.071 90.8154C259.471 91.0554 258.797 91.1754 258.051 91.1754C257.297 91.1754 256.617 91.0554 256.011 90.8154C255.411 90.5687 254.897 90.2187 254.471 89.7654C254.044 89.3121 253.714 88.7621 253.481 88.1154C253.254 87.4687 253.141 86.7454 253.141 85.9454C253.141 85.1454 253.254 84.4254 253.481 83.7854C253.714 83.1387 254.044 82.5887 254.471 82.1354C254.897 81.6754 255.411 81.3254 256.011 81.0854C256.617 80.8387 257.297 80.7154 258.051 80.7154ZM258.051 89.6554C259.011 89.6554 259.727 89.3321 260.201 88.6854C260.674 88.0387 260.911 87.1287 260.911 85.9554C260.911 84.7821 260.674 83.8721 260.201 83.2254C259.727 82.5721 259.011 82.2454 258.051 82.2454C257.077 82.2454 256.351 82.5721 255.871 83.2254C255.397 83.8721 255.161 84.7821 255.161 85.9554C255.161 87.1287 255.397 88.0387 255.871 88.6854C256.351 89.3321 257.077 89.6554 258.051 89.6554ZM279.081 80.8754L275.811 91.0354H274.251C274.065 91.0354 273.938 90.9121 273.871 90.6654L271.731 84.0454C271.678 83.8787 271.631 83.7154 271.591 83.5554C271.551 83.3887 271.515 83.2221 271.481 83.0554C271.421 83.4021 271.338 83.7387 271.231 84.0654L269.061 90.6654C268.995 90.9121 268.851 91.0354 268.631 91.0354H267.151L263.871 80.8754H265.411C265.565 80.8754 265.691 80.9121 265.791 80.9854C265.898 81.0587 265.968 81.1521 266.001 81.2654L267.831 87.5054C267.891 87.7587 267.945 88.0054 267.991 88.2454C268.038 88.4854 268.081 88.7254 268.121 88.9654C268.181 88.7254 268.245 88.4854 268.311 88.2454C268.385 88.0054 268.458 87.7587 268.531 87.5054L270.561 81.2254C270.595 81.1121 270.658 81.0221 270.751 80.9554C270.845 80.8821 270.958 80.8454 271.091 80.8454H271.941C272.088 80.8454 272.208 80.8821 272.301 80.9554C272.401 81.0221 272.468 81.1121 272.501 81.2254L274.481 87.5054C274.555 87.7587 274.625 88.0087 274.691 88.2554C274.758 88.4954 274.818 88.7387 274.871 88.9854C274.911 88.7454 274.958 88.5054 275.011 88.2654C275.065 88.0187 275.125 87.7654 275.191 87.5054L277.051 81.2654C277.085 81.1521 277.151 81.0587 277.251 80.9854C277.358 80.9121 277.478 80.8754 277.611 80.8754H279.081ZM295.811 87.9554C295.931 87.9554 296.034 88.0021 296.121 88.0954L296.961 89.0154C296.374 89.7087 295.658 90.2454 294.811 90.6254C293.971 91.0054 292.958 91.1954 291.771 91.1954C290.731 91.1954 289.788 91.0154 288.941 90.6554C288.101 90.2954 287.381 89.7921 286.781 89.1454C286.188 88.4987 285.728 87.7254 285.401 86.8254C285.074 85.9254 284.911 84.9354 284.911 83.8554C284.911 82.7754 285.081 81.7854 285.421 80.8854C285.768 79.9854 286.251 79.2121 286.871 78.5654C287.491 77.9187 288.231 77.4154 289.091 77.0554C289.958 76.6954 290.914 76.5154 291.961 76.5154C292.981 76.5154 293.888 76.6821 294.681 77.0154C295.474 77.3487 296.164 77.7921 296.751 78.3454L296.051 79.3354C296.004 79.4087 295.944 79.4687 295.871 79.5154C295.804 79.5621 295.714 79.5854 295.601 79.5854C295.474 79.5854 295.324 79.5221 295.151 79.3954C294.984 79.2687 294.761 79.1287 294.481 78.9754C294.208 78.8154 293.868 78.6721 293.461 78.5454C293.054 78.4187 292.548 78.3554 291.941 78.3554C291.228 78.3554 290.574 78.4821 289.981 78.7354C289.388 78.9821 288.874 79.3421 288.441 79.8154C288.014 80.2821 287.681 80.8587 287.441 81.5454C287.208 82.2254 287.091 82.9954 287.091 83.8554C287.091 84.7287 287.214 85.5054 287.461 86.1854C287.708 86.8654 288.048 87.4421 288.481 87.9154C288.914 88.3887 289.424 88.7487 290.011 88.9954C290.598 89.2421 291.231 89.3654 291.911 89.3654C292.324 89.3654 292.694 89.3421 293.021 89.2954C293.354 89.2421 293.658 89.1654 293.931 89.0654C294.211 88.9654 294.474 88.8387 294.721 88.6854C294.968 88.5254 295.211 88.3354 295.451 88.1154C295.504 88.0687 295.561 88.0321 295.621 88.0054C295.681 87.9721 295.744 87.9554 295.811 87.9554ZM304.161 86.5254C303.368 86.5521 302.695 86.6154 302.141 86.7154C301.588 86.8087 301.138 86.9354 300.791 87.0954C300.445 87.2554 300.195 87.4454 300.041 87.6654C299.888 87.8787 299.811 88.1187 299.811 88.3854C299.811 88.6387 299.851 88.8587 299.931 89.0454C300.018 89.2254 300.131 89.3754 300.271 89.4954C300.418 89.6087 300.588 89.6921 300.781 89.7454C300.975 89.7987 301.185 89.8254 301.411 89.8254C301.711 89.8254 301.985 89.7954 302.231 89.7354C302.485 89.6754 302.721 89.5921 302.941 89.4854C303.161 89.3721 303.371 89.2354 303.571 89.0754C303.771 88.9154 303.968 88.7321 304.161 88.5254V86.5254ZM298.441 82.2954C299.008 81.7554 299.621 81.3521 300.281 81.0854C300.948 80.8187 301.678 80.6854 302.471 80.6854C303.051 80.6854 303.565 80.7821 304.011 80.9754C304.458 81.1621 304.835 81.4254 305.141 81.7654C305.448 82.1054 305.678 82.5121 305.831 82.9854C305.991 83.4587 306.071 83.9821 306.071 84.5554V91.0354H305.201C305.008 91.0354 304.861 91.0054 304.761 90.9454C304.661 90.8787 304.581 90.7587 304.521 90.5854L304.311 89.6954C304.051 89.9354 303.795 90.1487 303.541 90.3354C303.288 90.5154 303.021 90.6721 302.741 90.8054C302.468 90.9321 302.175 91.0287 301.861 91.0954C301.548 91.1621 301.201 91.1954 300.821 91.1954C300.421 91.1954 300.045 91.1421 299.691 91.0354C299.345 90.9221 299.041 90.7521 298.781 90.5254C298.521 90.2987 298.315 90.0154 298.161 89.6754C298.015 89.3354 297.941 88.9387 297.941 88.4854C297.941 88.0854 298.048 87.7021 298.261 87.3354C298.481 86.9621 298.835 86.6287 299.321 86.3354C299.815 86.0421 300.455 85.8021 301.241 85.6154C302.035 85.4287 303.008 85.3221 304.161 85.2954V84.5554C304.161 83.7887 303.998 83.2154 303.671 82.8354C303.345 82.4554 302.865 82.2654 302.231 82.2654C301.805 82.2654 301.445 82.3187 301.151 82.4254C300.865 82.5321 300.615 82.6521 300.401 82.7854C300.195 82.9121 300.011 83.0287 299.851 83.1354C299.698 83.2421 299.538 83.2954 299.371 83.2954C299.238 83.2954 299.121 83.2587 299.021 83.1854C298.928 83.1121 298.851 83.0254 298.791 82.9254L298.441 82.2954ZM311.725 91.1954C310.905 91.1954 310.272 90.9654 309.825 90.5054C309.385 90.0454 309.165 89.3887 309.165 88.5354V82.4554H307.985C307.872 82.4554 307.775 82.4221 307.695 82.3554C307.622 82.2821 307.585 82.1754 307.585 82.0354V81.2454L309.235 81.0154L309.675 77.9854C309.702 77.8721 309.752 77.7854 309.825 77.7254C309.905 77.6587 310.005 77.6254 310.125 77.6254H311.115V81.0354H313.995V82.4554H311.115V88.4054C311.115 88.8054 311.212 89.1054 311.405 89.3054C311.605 89.4987 311.858 89.5954 312.165 89.5954C312.345 89.5954 312.498 89.5721 312.625 89.5254C312.758 89.4787 312.872 89.4287 312.965 89.3754C313.058 89.3154 313.138 89.2621 313.205 89.2154C313.272 89.1687 313.332 89.1454 313.385 89.1454C313.452 89.1454 313.502 89.1621 313.535 89.1954C313.575 89.2221 313.615 89.2687 313.655 89.3354L314.235 90.2754C313.915 90.5687 313.535 90.7954 313.095 90.9554C312.655 91.1154 312.198 91.1954 311.725 91.1954ZM322.463 84.8254C322.463 84.4387 322.406 84.0821 322.293 83.7554C322.186 83.4287 322.026 83.1454 321.813 82.9054C321.599 82.6654 321.339 82.4787 321.033 82.3454C320.726 82.2121 320.373 82.1454 319.973 82.1454C319.153 82.1454 318.506 82.3821 318.033 82.8554C317.566 83.3287 317.269 83.9854 317.143 84.8254H322.463ZM324.073 89.5854C323.833 89.8654 323.556 90.1087 323.243 90.3154C322.929 90.5154 322.596 90.6787 322.243 90.8054C321.889 90.9321 321.523 91.0254 321.143 91.0854C320.769 91.1454 320.399 91.1754 320.033 91.1754C319.333 91.1754 318.683 91.0587 318.083 90.8254C317.489 90.5854 316.973 90.2387 316.533 89.7854C316.099 89.3254 315.759 88.7587 315.513 88.0854C315.273 87.4054 315.153 86.6254 315.153 85.7454C315.153 85.0387 315.263 84.3821 315.483 83.7754C315.703 83.1621 316.016 82.6287 316.423 82.1754C316.836 81.7221 317.339 81.3654 317.933 81.1054C318.526 80.8454 319.193 80.7154 319.933 80.7154C320.553 80.7154 321.123 80.8187 321.643 81.0254C322.169 81.2254 322.623 81.5187 323.003 81.9054C323.383 82.2921 323.679 82.7687 323.893 83.3354C324.113 83.9021 324.223 84.5487 324.223 85.2754C324.223 85.5754 324.189 85.7787 324.123 85.8854C324.056 85.9854 323.933 86.0354 323.753 86.0354H317.093C317.113 86.6421 317.199 87.1721 317.353 87.6254C317.506 88.0721 317.716 88.4454 317.983 88.7454C318.256 89.0454 318.579 89.2687 318.953 89.4154C319.326 89.5621 319.743 89.6354 320.203 89.6354C320.636 89.6354 321.009 89.5854 321.323 89.4854C321.643 89.3854 321.916 89.2787 322.143 89.1654C322.376 89.0454 322.569 88.9354 322.723 88.8354C322.883 88.7354 323.023 88.6854 323.143 88.6854C323.303 88.6854 323.426 88.7454 323.513 88.8654L324.073 89.5854ZM329.888 85.9654C330.235 85.9654 330.538 85.9187 330.798 85.8254C331.065 85.7321 331.285 85.6021 331.458 85.4354C331.638 85.2621 331.772 85.0554 331.858 84.8154C331.952 84.5754 331.998 84.3121 331.998 84.0254C331.998 83.4387 331.818 82.9721 331.458 82.6254C331.105 82.2721 330.582 82.0954 329.888 82.0954C329.202 82.0954 328.678 82.2721 328.318 82.6254C327.965 82.9721 327.788 83.4387 327.788 84.0254C327.788 84.3121 327.832 84.5754 327.918 84.8154C328.012 85.0487 328.145 85.2521 328.318 85.4254C328.498 85.5921 328.718 85.7254 328.978 85.8254C329.245 85.9187 329.548 85.9654 329.888 85.9654ZM332.998 91.5654C332.998 91.3254 332.932 91.1354 332.798 90.9954C332.665 90.8487 332.482 90.7354 332.248 90.6554C332.022 90.5687 331.755 90.5087 331.448 90.4754C331.142 90.4354 330.818 90.4054 330.478 90.3854C330.145 90.3654 329.802 90.3487 329.448 90.3354C329.095 90.3154 328.755 90.2821 328.428 90.2354C328.082 90.4087 327.795 90.6187 327.568 90.8654C327.348 91.1121 327.238 91.4021 327.238 91.7354C327.238 91.9487 327.292 92.1487 327.398 92.3354C327.512 92.5221 327.682 92.6821 327.908 92.8154C328.142 92.9554 328.432 93.0621 328.778 93.1354C329.132 93.2154 329.552 93.2554 330.038 93.2554C330.518 93.2554 330.942 93.2121 331.308 93.1254C331.675 93.0454 331.982 92.9287 332.228 92.7754C332.482 92.6287 332.672 92.4521 332.798 92.2454C332.932 92.0387 332.998 91.8121 332.998 91.5654ZM334.978 81.2554V81.9854C334.978 82.2254 334.828 82.3754 334.528 82.4354L333.438 82.5954C333.532 82.8021 333.605 83.0221 333.658 83.2554C333.712 83.4821 333.738 83.7221 333.738 83.9754C333.738 84.4754 333.642 84.9287 333.448 85.3354C333.255 85.7354 332.988 86.0787 332.648 86.3654C332.308 86.6521 331.902 86.8721 331.428 87.0254C330.962 87.1787 330.448 87.2554 329.888 87.2554C329.428 87.2554 328.998 87.2054 328.598 87.1054C328.398 87.2254 328.245 87.3587 328.138 87.5054C328.038 87.6454 327.988 87.7854 327.988 87.9254C327.988 88.1587 328.085 88.3321 328.278 88.4454C328.478 88.5587 328.735 88.6421 329.048 88.6954C329.368 88.7421 329.732 88.7721 330.138 88.7854C330.552 88.7987 330.968 88.8221 331.388 88.8554C331.815 88.8821 332.232 88.9354 332.638 89.0154C333.052 89.0887 333.415 89.2121 333.728 89.3854C334.048 89.5521 334.305 89.7854 334.498 90.0854C334.698 90.3787 334.798 90.7621 334.798 91.2354C334.798 91.6754 334.688 92.1021 334.468 92.5154C334.255 92.9287 333.942 93.2954 333.528 93.6154C333.115 93.9354 332.612 94.1921 332.018 94.3854C331.425 94.5787 330.752 94.6754 329.998 94.6754C329.245 94.6754 328.588 94.6021 328.028 94.4554C327.475 94.3087 327.012 94.1121 326.638 93.8654C326.272 93.6187 325.995 93.3321 325.808 93.0054C325.628 92.6787 325.538 92.3387 325.538 91.9854C325.538 91.4921 325.692 91.0754 325.998 90.7354C326.305 90.3887 326.728 90.1187 327.268 89.9254C326.975 89.7921 326.742 89.6121 326.568 89.3854C326.395 89.1521 326.308 88.8454 326.308 88.4654C326.308 88.3187 326.335 88.1687 326.388 88.0154C326.442 87.8554 326.522 87.6987 326.628 87.5454C326.742 87.3854 326.878 87.2354 327.038 87.0954C327.205 86.9554 327.395 86.8287 327.608 86.7154C327.108 86.4354 326.715 86.0654 326.428 85.6054C326.142 85.1387 325.998 84.5954 325.998 83.9754C325.998 83.4754 326.095 83.0254 326.288 82.6254C326.482 82.2254 326.748 81.8821 327.088 81.5954C327.435 81.3087 327.845 81.0887 328.318 80.9354C328.798 80.7821 329.322 80.7054 329.888 80.7054C330.768 80.7054 331.525 80.8887 332.158 81.2554H334.978ZM340.941 80.7154C341.688 80.7154 342.361 80.8387 342.961 81.0854C343.568 81.3254 344.081 81.6754 344.501 82.1354C344.928 82.5887 345.255 83.1387 345.481 83.7854C345.708 84.4254 345.821 85.1454 345.821 85.9454C345.821 86.7454 345.708 87.4687 345.481 88.1154C345.255 88.7621 344.928 89.3121 344.501 89.7654C344.081 90.2187 343.568 90.5687 342.961 90.8154C342.361 91.0554 341.688 91.1754 340.941 91.1754C340.188 91.1754 339.508 91.0554 338.901 90.8154C338.301 90.5687 337.788 90.2187 337.361 89.7654C336.935 89.3121 336.605 88.7621 336.371 88.1154C336.145 87.4687 336.031 86.7454 336.031 85.9454C336.031 85.1454 336.145 84.4254 336.371 83.7854C336.605 83.1387 336.935 82.5887 337.361 82.1354C337.788 81.6754 338.301 81.3254 338.901 81.0854C339.508 80.8387 340.188 80.7154 340.941 80.7154ZM340.941 89.6554C341.901 89.6554 342.618 89.3321 343.091 88.6854C343.565 88.0387 343.801 87.1287 343.801 85.9554C343.801 84.7821 343.565 83.8721 343.091 83.2254C342.618 82.5721 341.901 82.2454 340.941 82.2454C339.968 82.2454 339.241 82.5721 338.761 83.2254C338.288 83.8721 338.051 84.7821 338.051 85.9554C338.051 87.1287 338.288 88.0387 338.761 88.6854C339.241 89.3321 339.968 89.6554 340.941 89.6554ZM349.838 82.8254C350.165 82.1587 350.558 81.6354 351.018 81.2554C351.478 80.8754 352.032 80.6854 352.678 80.6854C352.898 80.6854 353.105 80.7121 353.298 80.7654C353.498 80.8121 353.672 80.8854 353.818 80.9854L353.688 82.4554C353.642 82.6354 353.532 82.7254 353.358 82.7254C353.265 82.7254 353.125 82.7087 352.938 82.6754C352.752 82.6354 352.552 82.6154 352.338 82.6154C352.025 82.6154 351.748 82.6621 351.508 82.7554C351.268 82.8421 351.052 82.9754 350.858 83.1554C350.672 83.3287 350.505 83.5454 350.358 83.8054C350.212 84.0587 350.075 84.3487 349.948 84.6754V91.0354H347.998V80.8754H349.118C349.332 80.8754 349.475 80.9154 349.548 80.9954C349.628 81.0687 349.685 81.2021 349.718 81.3954L349.838 82.8254ZM357.362 80.8754V91.0354H355.412V80.8754H357.362ZM357.732 77.7354C357.732 77.9154 357.696 78.0887 357.622 78.2554C357.549 78.4154 357.449 78.5587 357.322 78.6854C357.202 78.8054 357.059 78.9021 356.892 78.9754C356.726 79.0421 356.552 79.0754 356.372 79.0754C356.192 79.0754 356.022 79.0421 355.862 78.9754C355.702 78.9021 355.559 78.8054 355.432 78.6854C355.312 78.5587 355.216 78.4154 355.142 78.2554C355.076 78.0887 355.042 77.9154 355.042 77.7354C355.042 77.5487 355.076 77.3754 355.142 77.2154C355.216 77.0487 355.312 76.9054 355.432 76.7854C355.559 76.6587 355.702 76.5621 355.862 76.4954C356.022 76.4221 356.192 76.3854 356.372 76.3854C356.552 76.3854 356.726 76.4221 356.892 76.4954C357.059 76.5621 357.202 76.6587 357.322 76.7854C357.449 76.9054 357.549 77.0487 357.622 77.2154C357.696 77.3754 357.732 77.5487 357.732 77.7354ZM366.916 84.8254C366.916 84.4387 366.859 84.0821 366.746 83.7554C366.639 83.4287 366.479 83.1454 366.266 82.9054C366.052 82.6654 365.792 82.4787 365.486 82.3454C365.179 82.2121 364.826 82.1454 364.426 82.1454C363.606 82.1454 362.959 82.3821 362.486 82.8554C362.019 83.3287 361.722 83.9854 361.596 84.8254H366.916ZM368.526 89.5854C368.286 89.8654 368.009 90.1087 367.696 90.3154C367.382 90.5154 367.049 90.6787 366.696 90.8054C366.342 90.9321 365.976 91.0254 365.596 91.0854C365.222 91.1454 364.852 91.1754 364.486 91.1754C363.786 91.1754 363.136 91.0587 362.536 90.8254C361.942 90.5854 361.426 90.2387 360.986 89.7854C360.552 89.3254 360.212 88.7587 359.966 88.0854C359.726 87.4054 359.606 86.6254 359.606 85.7454C359.606 85.0387 359.716 84.3821 359.936 83.7754C360.156 83.1621 360.469 82.6287 360.876 82.1754C361.289 81.7221 361.792 81.3654 362.386 81.1054C362.979 80.8454 363.646 80.7154 364.386 80.7154C365.006 80.7154 365.576 80.8187 366.096 81.0254C366.622 81.2254 367.076 81.5187 367.456 81.9054C367.836 82.2921 368.132 82.7687 368.346 83.3354C368.566 83.9021 368.676 84.5487 368.676 85.2754C368.676 85.5754 368.642 85.7787 368.576 85.8854C368.509 85.9854 368.386 86.0354 368.206 86.0354H361.546C361.566 86.6421 361.652 87.1721 361.806 87.6254C361.959 88.0721 362.169 88.4454 362.436 88.7454C362.709 89.0454 363.032 89.2687 363.406 89.4154C363.779 89.5621 364.196 89.6354 364.656 89.6354C365.089 89.6354 365.462 89.5854 365.776 89.4854C366.096 89.3854 366.369 89.2787 366.596 89.1654C366.829 89.0454 367.022 88.9354 367.176 88.8354C367.336 88.7354 367.476 88.6854 367.596 88.6854C367.756 88.6854 367.879 88.7454 367.966 88.8654L368.526 89.5854ZM376.762 82.6254C376.708 82.7121 376.652 82.7754 376.592 82.8154C376.532 82.8487 376.455 82.8654 376.362 82.8654C376.255 82.8654 376.135 82.8287 376.002 82.7554C375.875 82.6821 375.718 82.6021 375.532 82.5154C375.352 82.4287 375.138 82.3487 374.892 82.2754C374.645 82.2021 374.352 82.1654 374.012 82.1654C373.732 82.1654 373.475 82.2021 373.242 82.2754C373.015 82.3421 372.822 82.4387 372.662 82.5654C372.502 82.6854 372.378 82.8321 372.292 83.0054C372.205 83.1721 372.162 83.3521 372.162 83.5454C372.162 83.7987 372.235 84.0087 372.382 84.1754C372.535 84.3421 372.732 84.4854 372.972 84.6054C373.218 84.7254 373.495 84.8354 373.802 84.9354C374.115 85.0287 374.432 85.1287 374.752 85.2354C375.078 85.3421 375.395 85.4654 375.702 85.6054C376.015 85.7387 376.292 85.9087 376.532 86.1154C376.778 86.3154 376.975 86.5587 377.122 86.8454C377.275 87.1321 377.352 87.4821 377.352 87.8954C377.352 88.3687 377.265 88.8087 377.092 89.2154C376.925 89.6154 376.675 89.9621 376.342 90.2554C376.015 90.5487 375.608 90.7787 375.122 90.9454C374.635 91.1121 374.078 91.1954 373.452 91.1954C372.752 91.1954 372.105 91.0787 371.512 90.8454C370.918 90.6121 370.422 90.3154 370.022 89.9554L370.482 89.2054C370.535 89.1121 370.602 89.0421 370.682 88.9954C370.762 88.9421 370.868 88.9154 371.002 88.9154C371.128 88.9154 371.258 88.9621 371.392 89.0554C371.525 89.1487 371.685 89.2521 371.872 89.3654C372.058 89.4721 372.285 89.5721 372.552 89.6654C372.818 89.7521 373.152 89.7954 373.552 89.7954C373.885 89.7954 374.175 89.7554 374.422 89.6754C374.668 89.5887 374.872 89.4754 375.032 89.3354C375.198 89.1887 375.322 89.0221 375.402 88.8354C375.482 88.6487 375.522 88.4521 375.522 88.2454C375.522 87.9787 375.445 87.7587 375.292 87.5854C375.145 87.4054 374.948 87.2521 374.702 87.1254C374.462 86.9987 374.185 86.8887 373.872 86.7954C373.558 86.7021 373.238 86.6021 372.912 86.4954C372.585 86.3887 372.265 86.2654 371.952 86.1254C371.638 85.9854 371.358 85.8087 371.112 85.5954C370.872 85.3821 370.675 85.1221 370.522 84.8154C370.375 84.5087 370.302 84.1354 370.302 83.6954C370.302 83.3021 370.382 82.9254 370.542 82.5654C370.708 82.2054 370.945 81.8887 371.252 81.6154C371.565 81.3421 371.948 81.1254 372.402 80.9654C372.862 80.7987 373.385 80.7154 373.972 80.7154C374.645 80.7154 375.252 80.8221 375.792 81.0354C376.338 81.2487 376.805 81.5421 377.192 81.9154L376.762 82.6254Z" fill="#BB1314"/>
<rect x="341.14" y="25.1848" width="135.305" height="3.38262" fill="#BB1314"/>
<g clip-path="url(#clip2_651_2526)">
<circle cx="517.036" cy="27.0617" r="25.3697" stroke="#BB1314" stroke-width="3.38262"/>
<path d="M506.749 25.532C507.092 25.5324 507.421 25.6636 507.67 25.8987C507.919 26.1338 508.069 26.4551 508.089 26.7971C508.109 27.139 507.998 27.4756 507.778 27.7383C507.558 28.0009 507.246 28.1697 506.906 28.2102L506.749 28.2196H505.405C505.063 28.2192 504.733 28.0881 504.484 27.8529C504.235 27.6178 504.085 27.2965 504.065 26.9546C504.045 26.6126 504.156 26.276 504.376 26.0133C504.596 25.7507 504.908 25.5819 505.248 25.5414L505.405 25.532H506.749ZM517.499 13.438C517.828 13.438 518.146 13.5589 518.392 13.7776C518.638 13.9963 518.795 14.2977 518.834 14.6245L518.843 14.7818V16.1256C518.843 16.4681 518.712 16.7975 518.476 17.0465C518.241 17.2956 517.92 17.4455 517.578 17.4655C517.236 17.4856 516.899 17.3744 516.637 17.1545C516.374 16.9347 516.205 16.6229 516.165 16.2828L516.156 16.1256V14.7818C516.156 14.4254 516.297 14.0836 516.549 13.8316C516.801 13.5796 517.143 13.438 517.499 13.438ZM529.593 25.532C529.936 25.5324 530.265 25.6636 530.514 25.8987C530.763 26.1338 530.913 26.4551 530.933 26.7971C530.953 27.139 530.842 27.4756 530.622 27.7383C530.403 28.0009 530.091 28.1697 529.751 28.2102L529.593 28.2196H528.25C527.907 28.2192 527.578 28.0881 527.329 27.8529C527.08 27.6178 526.93 27.2965 526.91 26.9546C526.89 26.6126 527.001 26.276 527.221 26.0133C527.44 25.7507 527.752 25.5819 528.092 25.5414L528.25 25.532H529.593ZM507.949 17.3256C508.18 17.0942 508.488 16.9552 508.815 16.9347C509.141 16.9141 509.464 17.0135 509.723 17.214L509.849 17.3256L510.79 18.2662C511.031 18.508 511.171 18.8325 511.181 19.1738C511.192 19.515 511.072 19.8474 510.846 20.1035C510.62 20.3596 510.305 20.5201 509.965 20.5525C509.626 20.5849 509.286 20.4867 509.016 20.2778L508.89 20.1663L507.949 19.2257C507.697 18.9737 507.556 18.6319 507.556 18.2756C507.556 17.9193 507.697 17.5775 507.949 17.3256ZM525.149 17.3256C525.391 17.0845 525.716 16.9446 526.057 16.9342C526.398 16.9238 526.731 17.0436 526.987 17.2694C527.243 17.4952 527.403 17.8101 527.436 18.1499C527.468 18.4898 527.37 18.8293 527.161 19.0993L527.05 19.2257L526.109 20.1663C525.867 20.4073 525.543 20.5472 525.201 20.5577C524.86 20.5681 524.528 20.4482 524.272 20.2224C524.016 19.9966 523.855 19.6818 523.823 19.3419C523.79 19.0021 523.888 18.6626 524.097 18.3925L524.209 18.2662L525.149 17.3256ZM520.187 34.9385C520.543 34.9385 520.885 35.0801 521.137 35.3321C521.389 35.5841 521.531 35.9259 521.531 36.2823C521.531 37.3515 521.106 38.3769 520.35 39.1329C519.594 39.8889 518.568 40.3136 517.499 40.3136C516.43 40.3136 515.405 39.8889 514.649 39.1329C513.893 38.3769 513.468 37.3515 513.468 36.2823C513.468 35.9531 513.589 35.6355 513.808 35.3895C514.026 35.1436 514.328 34.9864 514.655 34.9479L514.812 34.9385H520.187ZM517.499 18.8131C519.192 18.8131 520.841 19.3456 522.214 20.335C523.586 21.3245 524.613 22.7208 525.148 24.3262C525.683 25.9315 525.7 27.6646 525.195 29.2798C524.691 30.8951 523.691 32.3106 522.337 33.326C522.152 33.4651 521.934 33.554 521.704 33.584L521.531 33.5947H513.468C513.177 33.5947 512.894 33.5004 512.662 33.326C511.308 32.3106 510.308 30.8951 509.803 29.2798C509.299 27.6646 509.315 25.9315 509.85 24.3262C510.386 22.7208 511.412 21.3245 512.785 20.335C514.158 19.3456 515.807 18.8131 517.499 18.8131Z" fill="#BB1314"/>
</g>
<path d="M437.509 84.0654C438.049 84.0654 438.523 83.9954 438.929 83.8554C439.343 83.7154 439.686 83.5187 439.959 83.2654C440.239 83.0054 440.449 82.6987 440.589 82.3454C440.729 81.9854 440.799 81.5887 440.799 81.1554C440.799 80.2821 440.526 79.5954 439.979 79.0954C439.439 78.5954 438.616 78.3454 437.509 78.3454H435.289V84.0654H437.509ZM437.509 76.6754C438.429 76.6754 439.229 76.7821 439.909 76.9954C440.589 77.2087 441.153 77.5121 441.599 77.9054C442.046 78.2921 442.376 78.7621 442.589 79.3154C442.809 79.8687 442.919 80.4821 442.919 81.1554C442.919 81.8287 442.803 82.4487 442.569 83.0154C442.336 83.5754 441.993 84.0587 441.539 84.4654C441.086 84.8721 440.519 85.1887 439.839 85.4154C439.166 85.6354 438.389 85.7454 437.509 85.7454H435.289V91.0354H433.159V76.6754H437.509ZM451.091 84.8254C451.091 84.4387 451.034 84.0821 450.921 83.7554C450.814 83.4287 450.654 83.1454 450.441 82.9054C450.228 82.6654 449.968 82.4787 449.661 82.3454C449.354 82.2121 449.001 82.1454 448.601 82.1454C447.781 82.1454 447.134 82.3821 446.661 82.8554C446.194 83.3287 445.898 83.9854 445.771 84.8254H451.091ZM452.701 89.5854C452.461 89.8654 452.184 90.1087 451.871 90.3154C451.558 90.5154 451.224 90.6787 450.871 90.8054C450.518 90.9321 450.151 91.0254 449.771 91.0854C449.398 91.1454 449.028 91.1754 448.661 91.1754C447.961 91.1754 447.311 91.0587 446.711 90.8254C446.118 90.5854 445.601 90.2387 445.161 89.7854C444.728 89.3254 444.388 88.7587 444.141 88.0854C443.901 87.4054 443.781 86.6254 443.781 85.7454C443.781 85.0387 443.891 84.3821 444.111 83.7754C444.331 83.1621 444.644 82.6287 445.051 82.1754C445.464 81.7221 445.968 81.3654 446.561 81.1054C447.154 80.8454 447.821 80.7154 448.561 80.7154C449.181 80.7154 449.751 80.8187 450.271 81.0254C450.798 81.2254 451.251 81.5187 451.631 81.9054C452.011 82.2921 452.308 82.7687 452.521 83.3354C452.741 83.9021 452.851 84.5487 452.851 85.2754C452.851 85.5754 452.818 85.7787 452.751 85.8854C452.684 85.9854 452.561 86.0354 452.381 86.0354H445.721C445.741 86.6421 445.828 87.1721 445.981 87.6254C446.134 88.0721 446.344 88.4454 446.611 88.7454C446.884 89.0454 447.208 89.2687 447.581 89.4154C447.954 89.5621 448.371 89.6354 448.831 89.6354C449.264 89.6354 449.638 89.5854 449.951 89.4854C450.271 89.3854 450.544 89.2787 450.771 89.1654C451.004 89.0454 451.198 88.9354 451.351 88.8354C451.511 88.7354 451.651 88.6854 451.771 88.6854C451.931 88.6854 452.054 88.7454 452.141 88.8654L452.701 89.5854ZM456.787 82.8254C457.114 82.1587 457.507 81.6354 457.967 81.2554C458.427 80.8754 458.98 80.6854 459.627 80.6854C459.847 80.6854 460.054 80.7121 460.247 80.7654C460.447 80.8121 460.62 80.8854 460.767 80.9854L460.637 82.4554C460.59 82.6354 460.48 82.7254 460.307 82.7254C460.214 82.7254 460.074 82.7087 459.887 82.6754C459.7 82.6354 459.5 82.6154 459.287 82.6154C458.974 82.6154 458.697 82.6621 458.457 82.7554C458.217 82.8421 458 82.9754 457.807 83.1554C457.62 83.3287 457.454 83.5454 457.307 83.8054C457.16 84.0587 457.024 84.3487 456.897 84.6754V91.0354H454.947V80.8754H456.067C456.28 80.8754 456.424 80.9154 456.497 80.9954C456.577 81.0687 456.634 81.2021 456.667 81.3954L456.787 82.8254ZM468.203 82.6254C468.149 82.7121 468.093 82.7754 468.033 82.8154C467.973 82.8487 467.896 82.8654 467.803 82.8654C467.696 82.8654 467.576 82.8287 467.443 82.7554C467.316 82.6821 467.159 82.6021 466.973 82.5154C466.793 82.4287 466.579 82.3487 466.333 82.2754C466.086 82.2021 465.793 82.1654 465.453 82.1654C465.173 82.1654 464.916 82.2021 464.683 82.2754C464.456 82.3421 464.263 82.4387 464.103 82.5654C463.943 82.6854 463.819 82.8321 463.733 83.0054C463.646 83.1721 463.603 83.3521 463.603 83.5454C463.603 83.7987 463.676 84.0087 463.823 84.1754C463.976 84.3421 464.173 84.4854 464.413 84.6054C464.659 84.7254 464.936 84.8354 465.243 84.9354C465.556 85.0287 465.873 85.1287 466.193 85.2354C466.519 85.3421 466.836 85.4654 467.143 85.6054C467.456 85.7387 467.733 85.9087 467.973 86.1154C468.219 86.3154 468.416 86.5587 468.563 86.8454C468.716 87.1321 468.793 87.4821 468.793 87.8954C468.793 88.3687 468.706 88.8087 468.533 89.2154C468.366 89.6154 468.116 89.9621 467.783 90.2554C467.456 90.5487 467.049 90.7787 466.563 90.9454C466.076 91.1121 465.519 91.1954 464.893 91.1954C464.193 91.1954 463.546 91.0787 462.953 90.8454C462.359 90.6121 461.863 90.3154 461.463 89.9554L461.923 89.2054C461.976 89.1121 462.043 89.0421 462.123 88.9954C462.203 88.9421 462.309 88.9154 462.443 88.9154C462.569 88.9154 462.699 88.9621 462.833 89.0554C462.966 89.1487 463.126 89.2521 463.313 89.3654C463.499 89.4721 463.726 89.5721 463.993 89.6654C464.259 89.7521 464.593 89.7954 464.993 89.7954C465.326 89.7954 465.616 89.7554 465.863 89.6754C466.109 89.5887 466.313 89.4754 466.473 89.3354C466.639 89.1887 466.763 89.0221 466.843 88.8354C466.923 88.6487 466.963 88.4521 466.963 88.2454C466.963 87.9787 466.886 87.7587 466.733 87.5854C466.586 87.4054 466.389 87.2521 466.143 87.1254C465.903 86.9987 465.626 86.8887 465.313 86.7954C464.999 86.7021 464.679 86.6021 464.353 86.4954C464.026 86.3887 463.706 86.2654 463.393 86.1254C463.079 85.9854 462.799 85.8087 462.553 85.5954C462.313 85.3821 462.116 85.1221 461.963 84.8154C461.816 84.5087 461.743 84.1354 461.743 83.6954C461.743 83.3021 461.823 82.9254 461.983 82.5654C462.149 82.2054 462.386 81.8887 462.693 81.6154C463.006 81.3421 463.389 81.1254 463.843 80.9654C464.303 80.7987 464.826 80.7154 465.413 80.7154C466.086 80.7154 466.693 80.8221 467.233 81.0354C467.779 81.2487 468.246 81.5421 468.633 81.9154L468.203 82.6254ZM475.234 80.7154C475.981 80.7154 476.654 80.8387 477.254 81.0854C477.861 81.3254 478.374 81.6754 478.794 82.1354C479.221 82.5887 479.547 83.1387 479.774 83.7854C480.001 84.4254 480.114 85.1454 480.114 85.9454C480.114 86.7454 480.001 87.4687 479.774 88.1154C479.547 88.7621 479.221 89.3121 478.794 89.7654C478.374 90.2187 477.861 90.5687 477.254 90.8154C476.654 91.0554 475.981 91.1754 475.234 91.1754C474.481 91.1754 473.801 91.0554 473.194 90.8154C472.594 90.5687 472.081 90.2187 471.654 89.7654C471.227 89.3121 470.897 88.7621 470.664 88.1154C470.437 87.4687 470.324 86.7454 470.324 85.9454C470.324 85.1454 470.437 84.4254 470.664 83.7854C470.897 83.1387 471.227 82.5887 471.654 82.1354C472.081 81.6754 472.594 81.3254 473.194 81.0854C473.801 80.8387 474.481 80.7154 475.234 80.7154ZM475.234 89.6554C476.194 89.6554 476.911 89.3321 477.384 88.6854C477.857 88.0387 478.094 87.1287 478.094 85.9554C478.094 84.7821 477.857 83.8721 477.384 83.2254C476.911 82.5721 476.194 82.2454 475.234 82.2454C474.261 82.2454 473.534 82.5721 473.054 83.2254C472.581 83.8721 472.344 84.7821 472.344 85.9554C472.344 87.1287 472.581 88.0387 473.054 88.6854C473.534 89.3321 474.261 89.6554 475.234 89.6554ZM484.121 82.2854C484.341 82.0521 484.571 81.8387 484.811 81.6454C485.051 81.4521 485.304 81.2887 485.571 81.1554C485.844 81.0154 486.134 80.9087 486.441 80.8354C486.754 80.7554 487.087 80.7154 487.441 80.7154C488.001 80.7154 488.491 80.8087 488.911 80.9954C489.337 81.1821 489.694 81.4454 489.981 81.7854C490.267 82.1187 490.484 82.5221 490.631 82.9954C490.777 83.4687 490.851 83.9921 490.851 84.5654V91.0354H488.891V84.5654C488.891 83.8387 488.724 83.2754 488.391 82.8754C488.057 82.4687 487.547 82.2654 486.861 82.2654C486.361 82.2654 485.891 82.3854 485.451 82.6254C485.017 82.8587 484.614 83.1787 484.241 83.5854V91.0354H482.291V80.8754H483.461C483.734 80.8754 483.904 81.0054 483.971 81.2654L484.121 82.2854ZM498.942 86.5254C498.149 86.5521 497.475 86.6154 496.922 86.7154C496.369 86.8087 495.919 86.9354 495.572 87.0954C495.225 87.2554 494.975 87.4454 494.822 87.6654C494.669 87.8787 494.592 88.1187 494.592 88.3854C494.592 88.6387 494.632 88.8587 494.712 89.0454C494.799 89.2254 494.912 89.3754 495.052 89.4954C495.199 89.6087 495.369 89.6921 495.562 89.7454C495.755 89.7987 495.965 89.8254 496.192 89.8254C496.492 89.8254 496.765 89.7954 497.012 89.7354C497.265 89.6754 497.502 89.5921 497.722 89.4854C497.942 89.3721 498.152 89.2354 498.352 89.0754C498.552 88.9154 498.749 88.7321 498.942 88.5254V86.5254ZM493.222 82.2954C493.789 81.7554 494.402 81.3521 495.062 81.0854C495.729 80.8187 496.459 80.6854 497.252 80.6854C497.832 80.6854 498.345 80.7821 498.792 80.9754C499.239 81.1621 499.615 81.4254 499.922 81.7654C500.229 82.1054 500.459 82.5121 500.612 82.9854C500.772 83.4587 500.852 83.9821 500.852 84.5554V91.0354H499.982C499.789 91.0354 499.642 91.0054 499.542 90.9454C499.442 90.8787 499.362 90.7587 499.302 90.5854L499.092 89.6954C498.832 89.9354 498.575 90.1487 498.322 90.3354C498.069 90.5154 497.802 90.6721 497.522 90.8054C497.249 90.9321 496.955 91.0287 496.642 91.0954C496.329 91.1621 495.982 91.1954 495.602 91.1954C495.202 91.1954 494.825 91.1421 494.472 91.0354C494.125 90.9221 493.822 90.7521 493.562 90.5254C493.302 90.2987 493.095 90.0154 492.942 89.6754C492.795 89.3354 492.722 88.9387 492.722 88.4854C492.722 88.0854 492.829 87.7021 493.042 87.3354C493.262 86.9621 493.615 86.6287 494.102 86.3354C494.595 86.0421 495.235 85.8021 496.022 85.6154C496.815 85.4287 497.789 85.3221 498.942 85.2954V84.5554C498.942 83.7887 498.779 83.2154 498.452 82.8354C498.125 82.4554 497.645 82.2654 497.012 82.2654C496.585 82.2654 496.225 82.3187 495.932 82.4254C495.645 82.5321 495.395 82.6521 495.182 82.7854C494.975 82.9121 494.792 83.0287 494.632 83.1354C494.479 83.2421 494.319 83.2954 494.152 83.2954C494.019 83.2954 493.902 83.2587 493.802 83.1854C493.709 83.1121 493.632 83.0254 493.572 82.9254L493.222 82.2954ZM505.463 76.2754V91.0354H503.503V76.2754H505.463ZM510.288 80.8754V91.0354H508.338V80.8754H510.288ZM510.658 77.7354C510.658 77.9154 510.621 78.0887 510.548 78.2554C510.474 78.4154 510.374 78.5587 510.248 78.6854C510.128 78.8054 509.984 78.9021 509.818 78.9754C509.651 79.0421 509.478 79.0754 509.298 79.0754C509.118 79.0754 508.948 79.0421 508.788 78.9754C508.628 78.9021 508.484 78.8054 508.358 78.6854C508.238 78.5587 508.141 78.4154 508.068 78.2554C508.001 78.0887 507.968 77.9154 507.968 77.7354C507.968 77.5487 508.001 77.3754 508.068 77.2154C508.141 77.0487 508.238 76.9054 508.358 76.7854C508.484 76.6587 508.628 76.5621 508.788 76.4954C508.948 76.4221 509.118 76.3854 509.298 76.3854C509.478 76.3854 509.651 76.4221 509.818 76.4954C509.984 76.5621 510.128 76.6587 510.248 76.7854C510.374 76.9054 510.474 77.0487 510.548 77.2154C510.621 77.3754 510.658 77.5487 510.658 77.7354ZM516.291 91.1954C515.471 91.1954 514.838 90.9654 514.391 90.5054C513.951 90.0454 513.731 89.3887 513.731 88.5354V82.4554H512.551C512.438 82.4554 512.341 82.4221 512.261 82.3554C512.188 82.2821 512.151 82.1754 512.151 82.0354V81.2454L513.801 81.0154L514.241 77.9854C514.268 77.8721 514.318 77.7854 514.391 77.7254C514.471 77.6587 514.571 77.6254 514.691 77.6254H515.681V81.0354H518.561V82.4554H515.681V88.4054C515.681 88.8054 515.778 89.1054 515.971 89.3054C516.171 89.4987 516.424 89.5954 516.731 89.5954C516.911 89.5954 517.064 89.5721 517.191 89.5254C517.324 89.4787 517.438 89.4287 517.531 89.3754C517.624 89.3154 517.704 89.2621 517.771 89.2154C517.838 89.1687 517.898 89.1454 517.951 89.1454C518.018 89.1454 518.068 89.1621 518.101 89.1954C518.141 89.2221 518.181 89.2687 518.221 89.3354L518.801 90.2754C518.481 90.5687 518.101 90.7954 517.661 90.9554C517.221 91.1154 516.764 91.1954 516.291 91.1954ZM529.237 80.8754L523.597 93.9854C523.537 94.1321 523.457 94.2454 523.357 94.3254C523.257 94.4054 523.11 94.4454 522.917 94.4454H521.467L523.327 90.3954L519.157 80.8754H520.857C521.024 80.8754 521.154 80.9154 521.247 80.9954C521.34 81.0754 521.407 81.1654 521.447 81.2654L524.027 87.3654C524.08 87.5187 524.13 87.6754 524.177 87.8354C524.23 87.9887 524.274 88.1421 524.307 88.2954C524.354 88.1354 524.404 87.9787 524.457 87.8254C524.51 87.6654 524.567 87.5087 524.627 87.3554L527.117 81.2654C527.164 81.1521 527.237 81.0587 527.337 80.9854C527.437 80.9121 527.55 80.8754 527.677 80.8754H529.237ZM537.838 91.0354H535.698V76.6754H537.838V91.0354ZM542.656 82.2854C542.876 82.0521 543.106 81.8387 543.346 81.6454C543.586 81.4521 543.839 81.2887 544.106 81.1554C544.379 81.0154 544.669 80.9087 544.976 80.8354C545.289 80.7554 545.622 80.7154 545.976 80.7154C546.536 80.7154 547.026 80.8087 547.446 80.9954C547.872 81.1821 548.229 81.4454 548.516 81.7854C548.802 82.1187 549.019 82.5221 549.166 82.9954C549.312 83.4687 549.386 83.9921 549.386 84.5654V91.0354H547.426V84.5654C547.426 83.8387 547.259 83.2754 546.926 82.8754C546.592 82.4687 546.082 82.2654 545.396 82.2654C544.896 82.2654 544.426 82.3854 543.986 82.6254C543.552 82.8587 543.149 83.1787 542.776 83.5854V91.0354H540.826V80.8754H541.996C542.269 80.8754 542.439 81.0054 542.506 81.2654L542.656 82.2854ZM558.007 82.6254C557.954 82.7121 557.897 82.7754 557.837 82.8154C557.777 82.8487 557.701 82.8654 557.607 82.8654C557.501 82.8654 557.381 82.8287 557.247 82.7554C557.121 82.6821 556.964 82.6021 556.777 82.5154C556.597 82.4287 556.384 82.3487 556.137 82.2754C555.891 82.2021 555.597 82.1654 555.257 82.1654C554.977 82.1654 554.721 82.2021 554.487 82.2754C554.261 82.3421 554.067 82.4387 553.907 82.5654C553.747 82.6854 553.624 82.8321 553.537 83.0054C553.451 83.1721 553.407 83.3521 553.407 83.5454C553.407 83.7987 553.481 84.0087 553.627 84.1754C553.781 84.3421 553.977 84.4854 554.217 84.6054C554.464 84.7254 554.741 84.8354 555.047 84.9354C555.361 85.0287 555.677 85.1287 555.997 85.2354C556.324 85.3421 556.641 85.4654 556.947 85.6054C557.261 85.7387 557.537 85.9087 557.777 86.1154C558.024 86.3154 558.221 86.5587 558.367 86.8454C558.521 87.1321 558.597 87.4821 558.597 87.8954C558.597 88.3687 558.511 88.8087 558.337 89.2154C558.171 89.6154 557.921 89.9621 557.587 90.2554C557.261 90.5487 556.854 90.7787 556.367 90.9454C555.881 91.1121 555.324 91.1954 554.697 91.1954C553.997 91.1954 553.351 91.0787 552.757 90.8454C552.164 90.6121 551.667 90.3154 551.267 89.9554L551.727 89.2054C551.781 89.1121 551.847 89.0421 551.927 88.9954C552.007 88.9421 552.114 88.9154 552.247 88.9154C552.374 88.9154 552.504 88.9621 552.637 89.0554C552.771 89.1487 552.931 89.2521 553.117 89.3654C553.304 89.4721 553.531 89.5721 553.797 89.6654C554.064 89.7521 554.397 89.7954 554.797 89.7954C555.131 89.7954 555.421 89.7554 555.667 89.6754C555.914 89.5887 556.117 89.4754 556.277 89.3354C556.444 89.1887 556.567 89.0221 556.647 88.8354C556.727 88.6487 556.767 88.4521 556.767 88.2454C556.767 87.9787 556.691 87.7587 556.537 87.5854C556.391 87.4054 556.194 87.2521 555.947 87.1254C555.707 86.9987 555.431 86.8887 555.117 86.7954C554.804 86.7021 554.484 86.6021 554.157 86.4954C553.831 86.3887 553.511 86.2654 553.197 86.1254C552.884 85.9854 552.604 85.8087 552.357 85.5954C552.117 85.3821 551.921 85.1221 551.767 84.8154C551.621 84.5087 551.547 84.1354 551.547 83.6954C551.547 83.3021 551.627 82.9254 551.787 82.5654C551.954 82.2054 552.191 81.8887 552.497 81.6154C552.811 81.3421 553.194 81.1254 553.647 80.9654C554.107 80.7987 554.631 80.7154 555.217 80.7154C555.891 80.7154 556.497 80.8221 557.037 81.0354C557.584 81.2487 558.051 81.5421 558.437 81.9154L558.007 82.6254ZM562.749 80.8754V91.0354H560.799V80.8754H562.749ZM563.119 77.7354C563.119 77.9154 563.082 78.0887 563.009 78.2554C562.935 78.4154 562.835 78.5587 562.709 78.6854C562.589 78.8054 562.445 78.9021 562.279 78.9754C562.112 79.0421 561.939 79.0754 561.759 79.0754C561.579 79.0754 561.409 79.0421 561.249 78.9754C561.089 78.9021 560.945 78.8054 560.819 78.6854C560.699 78.5587 560.602 78.4154 560.529 78.2554C560.462 78.0887 560.429 77.9154 560.429 77.7354C560.429 77.5487 560.462 77.3754 560.529 77.2154C560.602 77.0487 560.699 76.9054 560.819 76.7854C560.945 76.6587 561.089 76.5621 561.249 76.4954C561.409 76.4221 561.579 76.3854 561.759 76.3854C561.939 76.3854 562.112 76.4221 562.279 76.4954C562.445 76.5621 562.589 76.6587 562.709 76.7854C562.835 76.9054 562.935 77.0487 563.009 77.2154C563.082 77.3754 563.119 77.5487 563.119 77.7354ZM569.142 85.9654C569.489 85.9654 569.792 85.9187 570.052 85.8254C570.319 85.7321 570.539 85.6021 570.712 85.4354C570.892 85.2621 571.025 85.0554 571.112 84.8154C571.205 84.5754 571.252 84.3121 571.252 84.0254C571.252 83.4387 571.072 82.9721 570.712 82.6254C570.359 82.2721 569.835 82.0954 569.142 82.0954C568.455 82.0954 567.932 82.2721 567.572 82.6254C567.219 82.9721 567.042 83.4387 567.042 84.0254C567.042 84.3121 567.085 84.5754 567.172 84.8154C567.265 85.0487 567.399 85.2521 567.572 85.4254C567.752 85.5921 567.972 85.7254 568.232 85.8254C568.499 85.9187 568.802 85.9654 569.142 85.9654ZM572.252 91.5654C572.252 91.3254 572.185 91.1354 572.052 90.9954C571.919 90.8487 571.735 90.7354 571.502 90.6554C571.275 90.5687 571.009 90.5087 570.702 90.4754C570.395 90.4354 570.072 90.4054 569.732 90.3854C569.399 90.3654 569.055 90.3487 568.702 90.3354C568.349 90.3154 568.009 90.2821 567.682 90.2354C567.335 90.4087 567.049 90.6187 566.822 90.8654C566.602 91.1121 566.492 91.4021 566.492 91.7354C566.492 91.9487 566.545 92.1487 566.652 92.3354C566.765 92.5221 566.935 92.6821 567.162 92.8154C567.395 92.9554 567.685 93.0621 568.032 93.1354C568.385 93.2154 568.805 93.2554 569.292 93.2554C569.772 93.2554 570.195 93.2121 570.562 93.1254C570.929 93.0454 571.235 92.9287 571.482 92.7754C571.735 92.6287 571.925 92.4521 572.052 92.2454C572.185 92.0387 572.252 91.8121 572.252 91.5654ZM574.232 81.2554V81.9854C574.232 82.2254 574.082 82.3754 573.782 82.4354L572.692 82.5954C572.785 82.8021 572.859 83.0221 572.912 83.2554C572.965 83.4821 572.992 83.7221 572.992 83.9754C572.992 84.4754 572.895 84.9287 572.702 85.3354C572.509 85.7354 572.242 86.0787 571.902 86.3654C571.562 86.6521 571.155 86.8721 570.682 87.0254C570.215 87.1787 569.702 87.2554 569.142 87.2554C568.682 87.2554 568.252 87.2054 567.852 87.1054C567.652 87.2254 567.499 87.3587 567.392 87.5054C567.292 87.6454 567.242 87.7854 567.242 87.9254C567.242 88.1587 567.339 88.3321 567.532 88.4454C567.732 88.5587 567.989 88.6421 568.302 88.6954C568.622 88.7421 568.985 88.7721 569.392 88.7854C569.805 88.7987 570.222 88.8221 570.642 88.8554C571.069 88.8821 571.485 88.9354 571.892 89.0154C572.305 89.0887 572.669 89.2121 572.982 89.3854C573.302 89.5521 573.559 89.7854 573.752 90.0854C573.952 90.3787 574.052 90.7621 574.052 91.2354C574.052 91.6754 573.942 92.1021 573.722 92.5154C573.509 92.9287 573.195 93.2954 572.782 93.6154C572.369 93.9354 571.865 94.1921 571.272 94.3854C570.679 94.5787 570.005 94.6754 569.252 94.6754C568.499 94.6754 567.842 94.6021 567.282 94.4554C566.729 94.3087 566.265 94.1121 565.892 93.8654C565.525 93.6187 565.249 93.3321 565.062 93.0054C564.882 92.6787 564.792 92.3387 564.792 91.9854C564.792 91.4921 564.945 91.0754 565.252 90.7354C565.559 90.3887 565.982 90.1187 566.522 89.9254C566.229 89.7921 565.995 89.6121 565.822 89.3854C565.649 89.1521 565.562 88.8454 565.562 88.4654C565.562 88.3187 565.589 88.1687 565.642 88.0154C565.695 87.8554 565.775 87.6987 565.882 87.5454C565.995 87.3854 566.132 87.2354 566.292 87.0954C566.459 86.9554 566.649 86.8287 566.862 86.7154C566.362 86.4354 565.969 86.0654 565.682 85.6054C565.395 85.1387 565.252 84.5954 565.252 83.9754C565.252 83.4754 565.349 83.0254 565.542 82.6254C565.735 82.2254 566.002 81.8821 566.342 81.5954C566.689 81.3087 567.099 81.0887 567.572 80.9354C568.052 80.7821 568.575 80.7054 569.142 80.7054C570.022 80.7054 570.779 80.8887 571.412 81.2554H574.232ZM577.971 82.1654C578.398 81.7321 578.868 81.3821 579.381 81.1154C579.901 80.8487 580.498 80.7154 581.171 80.7154C581.731 80.7154 582.221 80.8087 582.641 80.9954C583.068 81.1821 583.424 81.4454 583.711 81.7854C583.998 82.1187 584.214 82.5221 584.361 82.9954C584.508 83.4687 584.581 83.9921 584.581 84.5654V91.0354H582.621V84.5654C582.621 83.8387 582.454 83.2754 582.121 82.8754C581.788 82.4687 581.278 82.2654 580.591 82.2654C580.091 82.2654 579.621 82.3854 579.181 82.6254C578.748 82.8587 578.344 83.1787 577.971 83.5854V91.0354H576.021V76.2754H577.971V82.1654ZM590.256 91.1954C589.436 91.1954 588.802 90.9654 588.356 90.5054C587.916 90.0454 587.696 89.3887 587.696 88.5354V82.4554H586.516C586.402 82.4554 586.306 82.4221 586.226 82.3554C586.152 82.2821 586.116 82.1754 586.116 82.0354V81.2454L587.766 81.0154L588.206 77.9854C588.232 77.8721 588.282 77.7854 588.356 77.7254C588.436 77.6587 588.536 77.6254 588.656 77.6254H589.646V81.0354H592.526V82.4554H589.646V88.4054C589.646 88.8054 589.742 89.1054 589.936 89.3054C590.136 89.4987 590.389 89.5954 590.696 89.5954C590.876 89.5954 591.029 89.5721 591.156 89.5254C591.289 89.4787 591.402 89.4287 591.496 89.3754C591.589 89.3154 591.669 89.2621 591.736 89.2154C591.802 89.1687 591.862 89.1454 591.916 89.1454C591.982 89.1454 592.032 89.1621 592.066 89.1954C592.106 89.2221 592.146 89.2687 592.186 89.3354L592.766 90.2754C592.446 90.5687 592.066 90.7954 591.626 90.9554C591.186 91.1154 590.729 91.1954 590.256 91.1954ZM600.312 82.6254C600.259 82.7121 600.202 82.7754 600.142 82.8154C600.082 82.8487 600.005 82.8654 599.912 82.8654C599.805 82.8654 599.685 82.8287 599.552 82.7554C599.425 82.6821 599.269 82.6021 599.082 82.5154C598.902 82.4287 598.689 82.3487 598.442 82.2754C598.195 82.2021 597.902 82.1654 597.562 82.1654C597.282 82.1654 597.025 82.2021 596.792 82.2754C596.565 82.3421 596.372 82.4387 596.212 82.5654C596.052 82.6854 595.929 82.8321 595.842 83.0054C595.755 83.1721 595.712 83.3521 595.712 83.5454C595.712 83.7987 595.785 84.0087 595.932 84.1754C596.085 84.3421 596.282 84.4854 596.522 84.6054C596.769 84.7254 597.045 84.8354 597.352 84.9354C597.665 85.0287 597.982 85.1287 598.302 85.2354C598.629 85.3421 598.945 85.4654 599.252 85.6054C599.565 85.7387 599.842 85.9087 600.082 86.1154C600.329 86.3154 600.525 86.5587 600.672 86.8454C600.825 87.1321 600.902 87.4821 600.902 87.8954C600.902 88.3687 600.815 88.8087 600.642 89.2154C600.475 89.6154 600.225 89.9621 599.892 90.2554C599.565 90.5487 599.159 90.7787 598.672 90.9454C598.185 91.1121 597.629 91.1954 597.002 91.1954C596.302 91.1954 595.655 91.0787 595.062 90.8454C594.469 90.6121 593.972 90.3154 593.572 89.9554L594.032 89.2054C594.085 89.1121 594.152 89.0421 594.232 88.9954C594.312 88.9421 594.419 88.9154 594.552 88.9154C594.679 88.9154 594.809 88.9621 594.942 89.0554C595.075 89.1487 595.235 89.2521 595.422 89.3654C595.609 89.4721 595.835 89.5721 596.102 89.6654C596.369 89.7521 596.702 89.7954 597.102 89.7954C597.435 89.7954 597.725 89.7554 597.972 89.6754C598.219 89.5887 598.422 89.4754 598.582 89.3354C598.749 89.1887 598.872 89.0221 598.952 88.8354C599.032 88.6487 599.072 88.4521 599.072 88.2454C599.072 87.9787 598.995 87.7587 598.842 87.5854C598.695 87.4054 598.499 87.2521 598.252 87.1254C598.012 86.9987 597.735 86.8887 597.422 86.7954C597.109 86.7021 596.789 86.6021 596.462 86.4954C596.135 86.3887 595.815 86.2654 595.502 86.1254C595.189 85.9854 594.909 85.8087 594.662 85.5954C594.422 85.3821 594.225 85.1221 594.072 84.8154C593.925 84.5087 593.852 84.1354 593.852 83.6954C593.852 83.3021 593.932 82.9254 594.092 82.5654C594.259 82.2054 594.495 81.8887 594.802 81.6154C595.115 81.3421 595.499 81.1254 595.952 80.9654C596.412 80.7987 596.935 80.7154 597.522 80.7154C598.195 80.7154 598.802 80.8221 599.342 81.0354C599.889 81.2487 600.355 81.5421 600.742 81.9154L600.312 82.6254Z" fill="#BB1314"/>
<rect x="557.628" y="25.1848" width="135.305" height="3.38262" fill="#8A8585"/>
<g clip-path="url(#clip3_651_2526)">
<circle cx="733.523" cy="27.061" r="25.3697" stroke="#8A8585" stroke-width="3.38262"/>
<path d="M744.532 18.2353C744.532 18.2353 744.895 17.1603 744.116 16.4078C743.404 15.709 742.476 16.0853 742.476 16.0853C741.657 16.4884 734.736 20.7482 732.17 23.5702C731.014 24.8602 729.401 28.6631 730.705 30.0472C731.941 31.3641 736.026 29.8187 737.142 28.7034C739.91 25.9352 744.143 19.0685 744.532 18.2353ZM721.782 37.1558C724.967 35.0595 723.744 32.5735 726.123 30.9206C727.372 30.0472 729.106 30.0875 730.261 31.3103C731.108 32.2107 731.337 34.7639 730.046 35.9598C727.937 37.9083 724.671 38.0427 721.782 37.1558Z" fill="#8A8585"/>
</g>
<path d="M672.028 84.0654C672.568 84.0654 673.041 83.9954 673.448 83.8554C673.861 83.7154 674.204 83.5187 674.478 83.2654C674.758 83.0054 674.968 82.6987 675.108 82.3454C675.248 81.9854 675.318 81.5887 675.318 81.1554C675.318 80.2821 675.044 79.5954 674.498 79.0954C673.958 78.5954 673.134 78.3454 672.028 78.3454H669.808V84.0654H672.028ZM672.028 76.6754C672.948 76.6754 673.748 76.7821 674.428 76.9954C675.108 77.2087 675.671 77.5121 676.118 77.9054C676.564 78.2921 676.894 78.7621 677.108 79.3154C677.328 79.8687 677.438 80.4821 677.438 81.1554C677.438 81.8287 677.321 82.4487 677.088 83.0154C676.854 83.5754 676.511 84.0587 676.058 84.4654C675.604 84.8721 675.038 85.1887 674.358 85.4154C673.684 85.6354 672.908 85.7454 672.028 85.7454H669.808V91.0354H667.678V76.6754H672.028ZM685.609 84.8254C685.609 84.4387 685.553 84.0821 685.439 83.7554C685.333 83.4287 685.173 83.1454 684.959 82.9054C684.746 82.6654 684.486 82.4787 684.179 82.3454C683.873 82.2121 683.519 82.1454 683.119 82.1454C682.299 82.1454 681.653 82.3821 681.179 82.8554C680.713 83.3287 680.416 83.9854 680.289 84.8254H685.609ZM687.219 89.5854C686.979 89.8654 686.703 90.1087 686.389 90.3154C686.076 90.5154 685.743 90.6787 685.389 90.8054C685.036 90.9321 684.669 91.0254 684.289 91.0854C683.916 91.1454 683.546 91.1754 683.179 91.1754C682.479 91.1754 681.829 91.0587 681.229 90.8254C680.636 90.5854 680.119 90.2387 679.679 89.7854C679.246 89.3254 678.906 88.7587 678.659 88.0854C678.419 87.4054 678.299 86.6254 678.299 85.7454C678.299 85.0387 678.409 84.3821 678.629 83.7754C678.849 83.1621 679.163 82.6287 679.569 82.1754C679.983 81.7221 680.486 81.3654 681.079 81.1054C681.673 80.8454 682.339 80.7154 683.079 80.7154C683.699 80.7154 684.269 80.8187 684.789 81.0254C685.316 81.2254 685.769 81.5187 686.149 81.9054C686.529 82.2921 686.826 82.7687 687.039 83.3354C687.259 83.9021 687.369 84.5487 687.369 85.2754C687.369 85.5754 687.336 85.7787 687.269 85.8854C687.203 85.9854 687.079 86.0354 686.899 86.0354H680.239C680.259 86.6421 680.346 87.1721 680.499 87.6254C680.653 88.0721 680.863 88.4454 681.129 88.7454C681.403 89.0454 681.726 89.2687 682.099 89.4154C682.473 89.5621 682.889 89.6354 683.349 89.6354C683.783 89.6354 684.156 89.5854 684.469 89.4854C684.789 89.3854 685.063 89.2787 685.289 89.1654C685.523 89.0454 685.716 88.9354 685.869 88.8354C686.029 88.7354 686.169 88.6854 686.289 88.6854C686.449 88.6854 686.573 88.7454 686.659 88.8654L687.219 89.5854ZM691.305 82.8254C691.632 82.1587 692.025 81.6354 692.485 81.2554C692.945 80.8754 693.499 80.6854 694.145 80.6854C694.365 80.6854 694.572 80.7121 694.765 80.7654C694.965 80.8121 695.139 80.8854 695.285 80.9854L695.155 82.4554C695.109 82.6354 694.999 82.7254 694.825 82.7254C694.732 82.7254 694.592 82.7087 694.405 82.6754C694.219 82.6354 694.019 82.6154 693.805 82.6154C693.492 82.6154 693.215 82.6621 692.975 82.7554C692.735 82.8421 692.519 82.9754 692.325 83.1554C692.139 83.3287 691.972 83.5454 691.825 83.8054C691.679 84.0587 691.542 84.3487 691.415 84.6754V91.0354H689.465V80.8754H690.585C690.799 80.8754 690.942 80.9154 691.015 80.9954C691.095 81.0687 691.152 81.2021 691.185 81.3954L691.305 82.8254ZM702.721 82.6254C702.668 82.7121 702.611 82.7754 702.551 82.8154C702.491 82.8487 702.414 82.8654 702.321 82.8654C702.214 82.8654 702.094 82.8287 701.961 82.7554C701.834 82.6821 701.678 82.6021 701.491 82.5154C701.311 82.4287 701.098 82.3487 700.851 82.2754C700.604 82.2021 700.311 82.1654 699.971 82.1654C699.691 82.1654 699.434 82.2021 699.201 82.2754C698.974 82.3421 698.781 82.4387 698.621 82.5654C698.461 82.6854 698.338 82.8321 698.251 83.0054C698.164 83.1721 698.121 83.3521 698.121 83.5454C698.121 83.7987 698.194 84.0087 698.341 84.1754C698.494 84.3421 698.691 84.4854 698.931 84.6054C699.178 84.7254 699.454 84.8354 699.761 84.9354C700.074 85.0287 700.391 85.1287 700.711 85.2354C701.038 85.3421 701.354 85.4654 701.661 85.6054C701.974 85.7387 702.251 85.9087 702.491 86.1154C702.738 86.3154 702.934 86.5587 703.081 86.8454C703.234 87.1321 703.311 87.4821 703.311 87.8954C703.311 88.3687 703.224 88.8087 703.051 89.2154C702.884 89.6154 702.634 89.9621 702.301 90.2554C701.974 90.5487 701.568 90.7787 701.081 90.9454C700.594 91.1121 700.038 91.1954 699.411 91.1954C698.711 91.1954 698.064 91.0787 697.471 90.8454C696.878 90.6121 696.381 90.3154 695.981 89.9554L696.441 89.2054C696.494 89.1121 696.561 89.0421 696.641 88.9954C696.721 88.9421 696.828 88.9154 696.961 88.9154C697.088 88.9154 697.218 88.9621 697.351 89.0554C697.484 89.1487 697.644 89.2521 697.831 89.3654C698.018 89.4721 698.244 89.5721 698.511 89.6654C698.778 89.7521 699.111 89.7954 699.511 89.7954C699.844 89.7954 700.134 89.7554 700.381 89.6754C700.628 89.5887 700.831 89.4754 700.991 89.3354C701.158 89.1887 701.281 89.0221 701.361 88.8354C701.441 88.6487 701.481 88.4521 701.481 88.2454C701.481 87.9787 701.404 87.7587 701.251 87.5854C701.104 87.4054 700.908 87.2521 700.661 87.1254C700.421 86.9987 700.144 86.8887 699.831 86.7954C699.518 86.7021 699.198 86.6021 698.871 86.4954C698.544 86.3887 698.224 86.2654 697.911 86.1254C697.598 85.9854 697.318 85.8087 697.071 85.5954C696.831 85.3821 696.634 85.1221 696.481 84.8154C696.334 84.5087 696.261 84.1354 696.261 83.6954C696.261 83.3021 696.341 82.9254 696.501 82.5654C696.668 82.2054 696.904 81.8887 697.211 81.6154C697.524 81.3421 697.908 81.1254 698.361 80.9654C698.821 80.7987 699.344 80.7154 699.931 80.7154C700.604 80.7154 701.211 80.8221 701.751 81.0354C702.298 81.2487 702.764 81.5421 703.151 81.9154L702.721 82.6254ZM709.752 80.7154C710.499 80.7154 711.172 80.8387 711.772 81.0854C712.379 81.3254 712.892 81.6754 713.312 82.1354C713.739 82.5887 714.066 83.1387 714.292 83.7854C714.519 84.4254 714.632 85.1454 714.632 85.9454C714.632 86.7454 714.519 87.4687 714.292 88.1154C714.066 88.7621 713.739 89.3121 713.312 89.7654C712.892 90.2187 712.379 90.5687 711.772 90.8154C711.172 91.0554 710.499 91.1754 709.752 91.1754C708.999 91.1754 708.319 91.0554 707.712 90.8154C707.112 90.5687 706.599 90.2187 706.172 89.7654C705.746 89.3121 705.416 88.7621 705.182 88.1154C704.956 87.4687 704.842 86.7454 704.842 85.9454C704.842 85.1454 704.956 84.4254 705.182 83.7854C705.416 83.1387 705.746 82.5887 706.172 82.1354C706.599 81.6754 707.112 81.3254 707.712 81.0854C708.319 80.8387 708.999 80.7154 709.752 80.7154ZM709.752 89.6554C710.712 89.6554 711.429 89.3321 711.902 88.6854C712.376 88.0387 712.612 87.1287 712.612 85.9554C712.612 84.7821 712.376 83.8721 711.902 83.2254C711.429 82.5721 710.712 82.2454 709.752 82.2454C708.779 82.2454 708.052 82.5721 707.572 83.2254C707.099 83.8721 706.862 84.7821 706.862 85.9554C706.862 87.1287 707.099 88.0387 707.572 88.6854C708.052 89.3321 708.779 89.6554 709.752 89.6554ZM718.639 82.2854C718.859 82.0521 719.089 81.8387 719.329 81.6454C719.569 81.4521 719.822 81.2887 720.089 81.1554C720.362 81.0154 720.652 80.9087 720.959 80.8354C721.272 80.7554 721.606 80.7154 721.959 80.7154C722.519 80.7154 723.009 80.8087 723.429 80.9954C723.856 81.1821 724.212 81.4454 724.499 81.7854C724.786 82.1187 725.002 82.5221 725.149 82.9954C725.296 83.4687 725.369 83.9921 725.369 84.5654V91.0354H723.409V84.5654C723.409 83.8387 723.242 83.2754 722.909 82.8754C722.576 82.4687 722.066 82.2654 721.379 82.2654C720.879 82.2654 720.409 82.3854 719.969 82.6254C719.536 82.8587 719.132 83.1787 718.759 83.5854V91.0354H716.809V80.8754H717.979C718.252 80.8754 718.422 81.0054 718.489 81.2654L718.639 82.2854ZM733.46 86.5254C732.667 86.5521 731.994 86.6154 731.44 86.7154C730.887 86.8087 730.437 86.9354 730.09 87.0954C729.744 87.2554 729.494 87.4454 729.34 87.6654C729.187 87.8787 729.11 88.1187 729.11 88.3854C729.11 88.6387 729.15 88.8587 729.23 89.0454C729.317 89.2254 729.43 89.3754 729.57 89.4954C729.717 89.6087 729.887 89.6921 730.08 89.7454C730.274 89.7987 730.484 89.8254 730.71 89.8254C731.01 89.8254 731.284 89.7954 731.53 89.7354C731.784 89.6754 732.02 89.5921 732.24 89.4854C732.46 89.3721 732.67 89.2354 732.87 89.0754C733.07 88.9154 733.267 88.7321 733.46 88.5254V86.5254ZM727.74 82.2954C728.307 81.7554 728.92 81.3521 729.58 81.0854C730.247 80.8187 730.977 80.6854 731.77 80.6854C732.35 80.6854 732.864 80.7821 733.31 80.9754C733.757 81.1621 734.134 81.4254 734.44 81.7654C734.747 82.1054 734.977 82.5121 735.13 82.9854C735.29 83.4587 735.37 83.9821 735.37 84.5554V91.0354H734.5C734.307 91.0354 734.16 91.0054 734.06 90.9454C733.96 90.8787 733.88 90.7587 733.82 90.5854L733.61 89.6954C733.35 89.9354 733.094 90.1487 732.84 90.3354C732.587 90.5154 732.32 90.6721 732.04 90.8054C731.767 90.9321 731.474 91.0287 731.16 91.0954C730.847 91.1621 730.5 91.1954 730.12 91.1954C729.72 91.1954 729.344 91.1421 728.99 91.0354C728.644 90.9221 728.34 90.7521 728.08 90.5254C727.82 90.2987 727.614 90.0154 727.46 89.6754C727.314 89.3354 727.24 88.9387 727.24 88.4854C727.24 88.0854 727.347 87.7021 727.56 87.3354C727.78 86.9621 728.134 86.6287 728.62 86.3354C729.114 86.0421 729.754 85.8021 730.54 85.6154C731.334 85.4287 732.307 85.3221 733.46 85.2954V84.5554C733.46 83.7887 733.297 83.2154 732.97 82.8354C732.644 82.4554 732.164 82.2654 731.53 82.2654C731.104 82.2654 730.744 82.3187 730.45 82.4254C730.164 82.5321 729.914 82.6521 729.7 82.7854C729.494 82.9121 729.31 83.0287 729.15 83.1354C728.997 83.2421 728.837 83.2954 728.67 83.2954C728.537 83.2954 728.42 83.2587 728.32 83.1854C728.227 83.1121 728.15 83.0254 728.09 82.9254L727.74 82.2954ZM739.981 76.2754V91.0354H738.021V76.2754H739.981ZM744.806 80.8754V91.0354H742.856V80.8754H744.806ZM745.176 77.7354C745.176 77.9154 745.139 78.0887 745.066 78.2554C744.993 78.4154 744.893 78.5587 744.766 78.6854C744.646 78.8054 744.503 78.9021 744.336 78.9754C744.169 79.0421 743.996 79.0754 743.816 79.0754C743.636 79.0754 743.466 79.0421 743.306 78.9754C743.146 78.9021 743.003 78.8054 742.876 78.6854C742.756 78.5587 742.659 78.4154 742.586 78.2554C742.519 78.0887 742.486 77.9154 742.486 77.7354C742.486 77.5487 742.519 77.3754 742.586 77.2154C742.659 77.0487 742.756 76.9054 742.876 76.7854C743.003 76.6587 743.146 76.5621 743.306 76.4954C743.466 76.4221 743.636 76.3854 743.816 76.3854C743.996 76.3854 744.169 76.4221 744.336 76.4954C744.503 76.5621 744.646 76.6587 744.766 76.7854C744.893 76.9054 744.993 77.0487 745.066 77.2154C745.139 77.3754 745.176 77.5487 745.176 77.7354ZM754.709 81.6954C754.709 81.8354 754.683 81.9721 754.629 82.1054C754.583 82.2387 754.519 82.3521 754.439 82.4454L749.109 89.5054H754.529V91.0354H746.819V90.2154C746.819 90.1221 746.843 90.0121 746.889 89.8854C746.936 89.7521 747.003 89.6287 747.089 89.5154L752.449 82.4054H747.129V80.8754H754.709V81.6954ZM762.171 86.5254C761.378 86.5521 760.705 86.6154 760.151 86.7154C759.598 86.8087 759.148 86.9354 758.801 87.0954C758.455 87.2554 758.205 87.4454 758.051 87.6654C757.898 87.8787 757.821 88.1187 757.821 88.3854C757.821 88.6387 757.861 88.8587 757.941 89.0454C758.028 89.2254 758.141 89.3754 758.281 89.4954C758.428 89.6087 758.598 89.6921 758.791 89.7454C758.985 89.7987 759.195 89.8254 759.421 89.8254C759.721 89.8254 759.995 89.7954 760.241 89.7354C760.495 89.6754 760.731 89.5921 760.951 89.4854C761.171 89.3721 761.381 89.2354 761.581 89.0754C761.781 88.9154 761.978 88.7321 762.171 88.5254V86.5254ZM756.451 82.2954C757.018 81.7554 757.631 81.3521 758.291 81.0854C758.958 80.8187 759.688 80.6854 760.481 80.6854C761.061 80.6854 761.575 80.7821 762.021 80.9754C762.468 81.1621 762.845 81.4254 763.151 81.7654C763.458 82.1054 763.688 82.5121 763.841 82.9854C764.001 83.4587 764.081 83.9821 764.081 84.5554V91.0354H763.211C763.018 91.0354 762.871 91.0054 762.771 90.9454C762.671 90.8787 762.591 90.7587 762.531 90.5854L762.321 89.6954C762.061 89.9354 761.805 90.1487 761.551 90.3354C761.298 90.5154 761.031 90.6721 760.751 90.8054C760.478 90.9321 760.185 91.0287 759.871 91.0954C759.558 91.1621 759.211 91.1954 758.831 91.1954C758.431 91.1954 758.055 91.1421 757.701 91.0354C757.355 90.9221 757.051 90.7521 756.791 90.5254C756.531 90.2987 756.325 90.0154 756.171 89.6754C756.025 89.3354 755.951 88.9387 755.951 88.4854C755.951 88.0854 756.058 87.7021 756.271 87.3354C756.491 86.9621 756.845 86.6287 757.331 86.3354C757.825 86.0421 758.465 85.8021 759.251 85.6154C760.045 85.4287 761.018 85.3221 762.171 85.2954V84.5554C762.171 83.7887 762.008 83.2154 761.681 82.8354C761.355 82.4554 760.875 82.2654 760.241 82.2654C759.815 82.2654 759.455 82.3187 759.161 82.4254C758.875 82.5321 758.625 82.6521 758.411 82.7854C758.205 82.9121 758.021 83.0287 757.861 83.1354C757.708 83.2421 757.548 83.2954 757.381 83.2954C757.248 83.2954 757.131 83.2587 757.031 83.1854C756.938 83.1121 756.861 83.0254 756.801 82.9254L756.451 82.2954ZM776.185 91.0354H774.225V82.4554H769.125V88.4054C769.125 88.8054 769.222 89.1054 769.415 89.3054C769.615 89.4987 769.868 89.5954 770.175 89.5954C770.355 89.5954 770.508 89.5721 770.635 89.5254C770.768 89.4787 770.882 89.4287 770.975 89.3754C771.068 89.3154 771.148 89.2621 771.215 89.2154C771.282 89.1687 771.342 89.1454 771.395 89.1454C771.462 89.1454 771.512 89.1621 771.545 89.1954C771.585 89.2221 771.625 89.2687 771.665 89.3354L772.245 90.2754C771.925 90.5687 771.545 90.7954 771.105 90.9554C770.665 91.1154 770.208 91.1954 769.735 91.1954C768.915 91.1954 768.282 90.9654 767.835 90.5054C767.395 90.0454 767.175 89.3887 767.175 88.5354V82.4554H765.995C765.882 82.4554 765.785 82.4221 765.705 82.3554C765.632 82.2821 765.595 82.1754 765.595 82.0354V81.2454L767.255 81.0154L767.685 77.9854C767.712 77.8721 767.762 77.7854 767.835 77.7254C767.915 77.6587 768.015 77.6254 768.135 77.6254H769.125V81.0354H776.185V91.0354ZM776.625 77.6754C776.625 77.8554 776.588 78.0287 776.515 78.1954C776.442 78.3554 776.342 78.4987 776.215 78.6254C776.095 78.7454 775.952 78.8421 775.785 78.9154C775.618 78.9821 775.445 79.0154 775.265 79.0154C775.085 79.0154 774.915 78.9821 774.755 78.9154C774.595 78.8421 774.452 78.7454 774.325 78.6254C774.205 78.4987 774.108 78.3554 774.035 78.1954C773.968 78.0287 773.935 77.8554 773.935 77.6754C773.935 77.4887 773.968 77.3121 774.035 77.1454C774.108 76.9787 774.205 76.8354 774.325 76.7154C774.452 76.5887 774.595 76.4921 774.755 76.4254C774.915 76.3521 775.085 76.3154 775.265 76.3154C775.445 76.3154 775.618 76.3521 775.785 76.4254C775.952 76.4921 776.095 76.5887 776.215 76.7154C776.342 76.8354 776.442 76.9787 776.515 77.1454C776.588 77.3121 776.625 77.4887 776.625 77.6754ZM783.346 80.7154C784.093 80.7154 784.766 80.8387 785.366 81.0854C785.973 81.3254 786.486 81.6754 786.906 82.1354C787.333 82.5887 787.659 83.1387 787.886 83.7854C788.113 84.4254 788.226 85.1454 788.226 85.9454C788.226 86.7454 788.113 87.4687 787.886 88.1154C787.659 88.7621 787.333 89.3121 786.906 89.7654C786.486 90.2187 785.973 90.5687 785.366 90.8154C784.766 91.0554 784.093 91.1754 783.346 91.1754C782.593 91.1754 781.913 91.0554 781.306 90.8154C780.706 90.5687 780.193 90.2187 779.766 89.7654C779.339 89.3121 779.009 88.7621 778.776 88.1154C778.549 87.4687 778.436 86.7454 778.436 85.9454C778.436 85.1454 778.549 84.4254 778.776 83.7854C779.009 83.1387 779.339 82.5887 779.766 82.1354C780.193 81.6754 780.706 81.3254 781.306 81.0854C781.913 80.8387 782.593 80.7154 783.346 80.7154ZM783.346 89.6554C784.306 89.6554 785.023 89.3321 785.496 88.6854C785.969 88.0387 786.206 87.1287 786.206 85.9554C786.206 84.7821 785.969 83.8721 785.496 83.2254C785.023 82.5721 784.306 82.2454 783.346 82.2454C782.373 82.2454 781.646 82.5721 781.166 83.2254C780.693 83.8721 780.456 84.7821 780.456 85.9554C780.456 87.1287 780.693 88.0387 781.166 88.6854C781.646 89.3321 782.373 89.6554 783.346 89.6554ZM792.233 82.2854C792.453 82.0521 792.683 81.8387 792.923 81.6454C793.163 81.4521 793.416 81.2887 793.683 81.1554C793.956 81.0154 794.246 80.9087 794.553 80.8354C794.866 80.7554 795.199 80.7154 795.553 80.7154C796.113 80.7154 796.603 80.8087 797.023 80.9954C797.449 81.1821 797.806 81.4454 798.093 81.7854C798.379 82.1187 798.596 82.5221 798.743 82.9954C798.889 83.4687 798.963 83.9921 798.963 84.5654V91.0354H797.003V84.5654C797.003 83.8387 796.836 83.2754 796.503 82.8754C796.169 82.4687 795.659 82.2654 794.973 82.2654C794.473 82.2654 794.003 82.3854 793.563 82.6254C793.129 82.8587 792.726 83.1787 792.353 83.5854V91.0354H790.403V80.8754H791.573C791.846 80.8754 792.016 81.0054 792.083 81.2654L792.233 82.2854Z" fill="#8A8585"/>
<defs>
<clipPath id="clip0_651_2526">
<rect width="54.122" height="54.122" fill="white" transform="translate(57)"/>
</clipPath>
<clipPath id="clip1_651_2526">
<rect width="54.122" height="54.122" fill="white" transform="translate(273.488)"/>
</clipPath>
<clipPath id="clip2_651_2526">
<rect width="54.122" height="54.122" fill="white" transform="translate(489.975 0.000488281)"/>
</clipPath>
<clipPath id="clip3_651_2526">
<rect width="54.122" height="54.122" fill="white" transform="translate(706.463)"/>
</clipPath>
</defs>
</svg>
