<svg width="40" height="41" viewBox="0 0 40 41" fill="none" xmlns="http://www.w3.org/2000/svg">
<path d="M1.17822 22.9156L6.28447 17.8844L14.9782 16.3438L14.1188 20.8938L2.36572 24.5062L1.60635 24.1781L1.17822 22.9156Z" fill="#CA2C31"/>
<path d="M7.16875 19.175L1.625 24.2125L5.70312 26.2L11.8938 23.0406V21.55L13.1594 18.1375L7.16875 19.175ZM20.2875 28.0468L17.6094 29.2093L15.0812 34.5687C15.0812 34.5687 17.3062 39.4968 17.4062 39.4968C17.5063 39.4968 18.7719 39.5968 18.7719 39.5968L23.2719 34.5656L24.4094 25.9718L20.2875 28.0468Z" fill="#A02422"/>
<path d="M17.6563 32.0125C17.6563 32.0125 19.1469 31.7094 20.2094 31.2032C21.2719 30.6969 22.5844 29.9407 22.5844 29.9407L22.1032 34.1375L17.4 39.4907C17.4 39.4907 17.2157 39.2625 16.4344 37.5625C15.8125 36.2063 15.5969 35.7219 15.5969 35.7219L17.6563 32.0125Z" fill="#CA2C31"/>
<path d="M9.86868 25.7063C9.86868 25.7063 8.07493 25.5563 6.1093 28.0407C4.31555 30.3095 3.47493 34.0032 3.14993 34.9532C2.82493 35.9032 2.0468 36.097 2.30618 36.5313C2.56555 36.9657 3.68743 36.9407 5.0718 36.7688C6.45618 36.597 7.64368 36.1626 7.64368 36.1626C7.64368 36.1626 7.5843 36.3126 7.3843 36.6376C7.31243 36.7532 7.06243 36.9188 7.08118 37.0907C7.12493 37.5001 10.6312 37.5095 13.4312 34.6282C16.4562 31.5188 14.9874 28.9688 14.9874 28.9688L9.86868 25.7063Z" fill="#F7D74D"/>
<path d="M10.4094 27.1531C10.4094 27.1531 8.47505 27.2562 6.87505 29.7406C5.27505 32.225 4.5313 35.1031 4.68443 35.2968C4.83443 35.4906 7.81568 34.4125 8.5313 34.6281C9.02193 34.7781 8.7688 35.275 8.90005 35.4062C9.00943 35.5156 10.3032 35.7 12.3969 33.4312C14.4938 31.1624 13.9969 27.975 13.9969 27.975L10.4094 27.1531Z" fill="#FBF0B4"/>
<path d="M11.3594 23.7625C11.3594 23.7625 10.3875 24.6281 10.0407 25.125C9.69379 25.6218 9.69379 25.6656 9.71566 25.8156C9.73754 25.9656 10.0969 27.6124 11.5938 29.0562C13.4313 30.8281 15.0719 31.0656 15.3094 31.0656C15.5469 31.0656 17.125 29.2937 17.125 29.2937L11.3594 23.7625Z" fill="#858585"/>
<path d="M15.6562 29.0125C15.6562 29.0125 17.2313 30.0469 19.8719 29.1594C23.4812 27.9469 26.1281 25.2344 29.4062 21.8094C32.5687 18.5031 35.2219 14.4 35.2219 14.4L33.3625 8.17188L15.6562 29.0125Z" fill="#437687"/>
<path d="M21.2468 25.6032L21.6812 24.2532L22.7687 24.4063C22.7687 24.4063 23.5968 24.7969 24.2062 25.0813C24.8156 25.3657 25.6 25.5813 25.6 25.5813L24.0531 26.8875C24.0531 26.8875 23.2093 26.5688 22.5937 26.3C21.9 25.9969 21.2468 25.6032 21.2468 25.6032Z" fill="#3F545F"/>
<path d="M26.3501 5.5437C26.3501 5.5437 23.3438 7.28745 19.0345 11.3656C15.1501 15.0406 12.272 18.3656 11.5751 21.1937C10.9938 23.5625 11.3032 25 12.6251 26.5531C14.022 28.1968 15.6595 29.0125 15.6595 29.0125C15.6595 29.0125 16.8907 29.0312 22.0282 25.0781C28.4376 20.1437 33.572 11.8812 33.572 11.8812L26.3501 5.5437Z" fill="#8DAFBF"/>
<path d="M32.5562 13.5751C32.5562 13.5751 29.9406 12.4594 28.075 9.85632C26.2218 7.27194 26.3687 5.52507 26.3687 5.52507C26.3687 5.52507 27.9187 4.30944 31.4031 2.91882C33.7468 1.98444 36.9375 1.50632 37.9875 2.28444C39.0375 3.06257 37.2687 6.96569 37.2687 6.96569L34.0468 13.2032L32.5562 13.5751Z" fill="#D83F22"/>
<path d="M21.3031 25.625C21.3031 25.625 19.0437 24.4718 17.6062 22.8312C14.8875 19.7343 14.325 16.3343 14.325 16.3343L15.6906 14.7312C15.6906 14.7312 16.0312 18.3437 18.9468 21.4656C20.8468 23.4999 22.8312 24.4312 22.8312 24.4312C22.8312 24.4312 22.4343 24.7656 22.0093 25.0906C21.7375 25.3 21.3031 25.625 21.3031 25.625Z" fill="#6896A5"/>
<path d="M35.2218 14.4C35.2218 14.4 36.578 12.7656 37.8624 9.0812C39.6562 3.9437 38.0937 2.38745 38.0937 2.38745C38.0937 2.38745 37.5655 4.8312 35.7312 8.22808C34.2593 10.95 32.478 13.5406 32.478 13.5406C32.478 13.5406 33.4593 13.9812 33.9905 14.1343C34.6593 14.3281 35.2218 14.4 35.2218 14.4Z" fill="#A02422"/>
<path d="M12.4406 22.2687C12.8468 22.6562 13.4625 22.2499 13.8656 21.2999C14.2718 20.3499 14.2656 19.8187 13.9531 19.5937C13.5656 19.3124 12.9156 19.928 12.6312 20.4749C12.3187 21.0812 12.1343 21.9749 12.4406 22.2687ZM26.5468 6.79053C26.5468 6.79053 24.1687 8.4999 21.6312 10.8249C19.3031 12.9593 17.7593 14.628 17.5468 15.0155C17.3218 15.4312 17.3187 16.0187 17.4937 16.3187C17.6687 16.6187 18.0562 16.7749 18.4093 16.5124C18.7625 16.2468 21.2781 13.4655 23.55 11.478C25.6281 9.65928 27.2312 8.50615 27.2312 8.50615C27.2312 8.50615 27.8812 7.35615 27.775 7.09365C27.6687 6.82803 26.5468 6.79053 26.5468 6.79053Z" fill="#B3E1EE"/>
<path d="M26.5469 6.79055C26.5469 6.79055 28.3031 5.44367 30.2156 4.4968C31.9938 3.61555 33.7625 2.88117 34.0813 3.51867C34.3844 4.12492 32.4031 4.94992 30.6594 6.06242C28.9156 7.17492 27.2375 8.50305 27.2375 8.50305C27.2375 8.50305 26.9813 8.0343 26.8156 7.59992C26.7108 7.33545 26.621 7.06522 26.5469 6.79055Z" fill="#ED6A65"/>
<path d="M27.997 12.7657C26.2563 11.1626 23.8345 11.5939 22.6407 13.0189C21.4157 14.4876 21.5063 16.7314 22.9532 18.0814C24.2688 19.3064 26.7157 19.5845 28.1907 17.8657C29.5032 16.3407 29.422 14.0751 27.997 12.7657Z" fill="#E1E1E1"/>
<path d="M23.5407 13.5844C22.5064 14.6 22.5626 16.6125 23.7939 17.5312C24.8689 18.3344 26.3939 18.2937 27.3501 17.3156C28.3064 16.3375 28.3064 14.5594 27.4095 13.6406C26.3782 12.5875 24.7251 12.4219 23.5407 13.5844Z" fill="#3F545F"/>
<path d="M15.625 24.5281C15.625 24.5281 17.5593 22.5656 17.7718 22.7781C17.9843 22.9906 17.9562 24.1812 17.0312 25.5062C16.1031 26.8312 14.0625 29.1906 12.4468 30.7812C10.8531 32.3468 8.60622 34.1374 8.39372 34.1062C8.2281 34.0812 7.55622 33.7468 7.28747 33.4218C7.02497 33.0999 7.80935 31.5781 8.12497 31.0749C8.44372 30.5718 15.625 24.5281 15.625 24.5281Z" fill="#A02524"/>
<path d="M6.63445 32.3281C6.60945 32.7781 7.29695 33.4344 7.29695 33.4344L17.772 22.7812C17.772 22.7812 17.2813 22.2281 15.8376 23.125C14.3813 24.0312 13.1063 25.1187 11.2251 26.9406C8.6032 29.4844 6.65945 31.8781 6.63445 32.3281Z" fill="#CA2C31"/>
<path d="M5.95626 12.047C5.60939 12.3938 5.59376 12.9501 5.98126 13.2688C6.32501 13.5532 6.88439 13.3688 7.09376 13.1126C7.30314 12.8563 7.27814 12.3001 7.00001 12.0251C6.72189 11.747 6.16876 11.8376 5.95626 12.047Z" fill="white"/>
<path opacity="0.5" d="M12.8188 11.6406C12.5563 11.9313 12.6407 12.3625 12.8845 12.5219C13.1282 12.6813 13.4938 12.6656 13.672 12.4469C13.8313 12.25 13.8501 11.8563 13.6063 11.6125C13.3938 11.4031 12.9876 11.4531 12.8188 11.6406Z" fill="white"/>
<path d="M17.3595 4.21558C17.3595 4.21558 17.7407 3.12808 17.9657 3.11558C18.1938 3.10308 18.522 4.20308 18.522 4.20308C18.522 4.20308 19.6501 4.21558 19.7251 4.38121C19.822 4.59371 19.0032 5.30621 19.0032 5.30621C19.0032 5.30621 19.2688 6.36871 19.1438 6.49683C19.0032 6.63746 18.0313 6.07808 18.0313 6.07808C18.0313 6.07808 17.0313 6.77496 16.8157 6.58433C16.6282 6.41871 17.0188 5.29371 17.0188 5.29371C17.0188 5.29371 16.0813 4.60933 16.1313 4.41871C16.2032 4.14996 17.3595 4.21558 17.3595 4.21558ZM30.3157 30.2906C30.6938 30.5 31.1688 30.3812 31.3438 29.9781C31.5032 29.6187 31.2094 29.1906 30.9438 29.075C30.6782 28.9593 30.2126 29.1125 30.0438 29.4156C29.8782 29.7156 30.0876 30.1656 30.3157 30.2906ZM35.6845 21.075C35.4688 20.7406 35.0032 20.6312 34.7001 20.9C34.4063 21.1625 34.4782 21.575 34.6438 21.7843C34.8095 21.9937 35.2532 22.0718 35.5219 21.9C35.7907 21.7281 35.8157 21.275 35.6845 21.075Z" fill="white"/>
</svg>
